<svg width="34" height="34" viewBox="0 0 34 34" fill="none" xmlns="http://www.w3.org/2000/svg">
<path d="M11.3334 11.3333L11.3334 9.91668C11.3334 6.78707 13.8704 4.25001 17 4.25001V4.25001C20.1296 4.25001 22.6667 6.78707 22.6667 9.91668L22.6667 11.3333" stroke="#7FB462" stroke-width="2" stroke-linecap="round"/>
<path fill-rule="evenodd" clip-rule="evenodd" d="M4.83579 10.5024C4.25 11.0882 4.25 12.031 4.25 13.9167V23.1667C4.25 26.9379 4.25 28.8235 5.42157 29.9951C6.59315 31.1667 8.47876 31.1667 12.25 31.1667H21.75C25.5212 31.1667 27.4069 31.1667 28.5784 29.9951C29.75 28.8235 29.75 26.9379 29.75 23.1667V13.9167C29.75 12.031 29.75 11.0882 29.1642 10.5024C28.5784 9.91666 27.6356 9.91666 25.75 9.91666H8.25C6.36438 9.91666 5.42157 9.91666 4.83579 10.5024ZM13.75 17C13.75 16.4477 13.3023 16 12.75 16C12.1977 16 11.75 16.4477 11.75 17V19.8333C11.75 20.3856 12.1977 20.8333 12.75 20.8333C13.3023 20.8333 13.75 20.3856 13.75 19.8333V17ZM22.25 17C22.25 16.4477 21.8023 16 21.25 16C20.6977 16 20.25 16.4477 20.25 17V19.8333C20.25 20.3856 20.6977 20.8333 21.25 20.8333C21.8023 20.8333 22.25 20.3856 22.25 19.8333V17Z" fill="#7FB462"/>
</svg>
