<svg width="24" height="24" viewBox="0 0 24 24" fill="none" xmlns="http://www.w3.org/2000/svg">
<path d="M9.14415 3.22949C7.7632 3.07515 6.33613 3.07515 4.95519 3.22949C4.06678 3.32879 3.3484 4.02838 3.24363 4.92414C3.07846 6.3364 3.07846 7.7631 3.24363 9.17537C3.3484 10.0711 4.06678 10.7707 4.95519 10.87C6.33613 11.0243 7.7632 11.0243 9.14415 10.87C10.0326 10.7707 10.7509 10.0711 10.8557 9.17537C11.0209 7.7631 11.0209 6.3364 10.8557 4.92414C10.7509 4.02838 10.0326 3.32879 9.14415 3.22949Z" fill="#7FB462"/>
<path d="M9.14415 13.3575C7.7632 13.2031 6.33613 13.2031 4.95519 13.3575C4.06678 13.4568 3.3484 14.1564 3.24363 15.0521C3.07846 16.4644 3.07846 17.8911 3.24363 19.3033C3.3484 20.1991 4.06678 20.8987 4.95519 20.998C6.33613 21.1523 7.7632 21.1523 9.14415 20.998C10.0326 20.8987 10.7509 20.1991 10.8557 19.3033C11.0209 17.8911 11.0209 16.4644 10.8557 15.0521C10.7509 14.1564 10.0326 13.4568 9.14415 13.3575Z" fill="#7FB462"/>
<path d="M19.2721 3.22949C17.8912 3.07515 16.4641 3.07515 15.0832 3.22949C14.1948 3.32879 13.4764 4.02838 13.3716 4.92414C13.2065 6.3364 13.2065 7.7631 13.3716 9.17537C13.4764 10.0711 14.1948 10.7707 15.0832 10.87C16.4641 11.0243 17.8912 11.0243 19.2721 10.87C20.1605 10.7707 20.8789 10.0711 20.9837 9.17537C21.1489 7.7631 21.1489 6.3364 20.9837 4.92414C20.8789 4.02838 20.1605 3.32879 19.2721 3.22949Z" fill="#7FB462"/>
<path d="M19.2721 13.3575C17.8912 13.2031 16.4641 13.2031 15.0832 13.3575C14.1948 13.4568 13.4764 14.1564 13.3716 15.0521C13.2065 16.4644 13.2065 17.8911 13.3716 19.3033C13.4764 20.1991 14.1948 20.8987 15.0832 20.998C16.4641 21.1523 17.8912 21.1523 19.2721 20.998C20.1605 20.8987 20.8789 20.1991 20.9837 19.3033C21.1489 17.8911 21.1489 16.4644 20.9837 15.0521C20.8789 14.1564 20.1605 13.4568 19.2721 13.3575Z" fill="#7FB462"/>
</svg>
