<svg width="34" height="34" viewBox="0 0 34 34" fill="none" xmlns="http://www.w3.org/2000/svg">
<path d="M17 2.83334C9.32025 2.83334 2.83334 9.32026 2.83334 17C2.83334 24.6798 9.32025 31.1667 17 31.1667C24.6798 31.1667 31.1667 24.6798 31.1667 17C31.1667 9.32026 24.6798 2.83334 17 2.83334ZM17 9.91668C19.4466 9.91668 21.25 11.7187 21.25 14.1667C21.25 16.6147 19.4466 18.4167 17 18.4167C14.5548 18.4167 12.75 16.6147 12.75 14.1667C12.75 11.7187 14.5548 9.91668 17 9.91668ZM9.7665 23.7603C11.0373 21.8903 13.1566 20.6437 15.5833 20.6437H18.4167C20.8448 20.6437 22.9628 21.8903 24.2335 23.7603C22.423 25.6983 19.8546 26.9167 17 26.9167C14.1454 26.9167 11.577 25.6983 9.7665 23.7603Z" fill="#7FB462"/>
</svg>
