<svg width="24" height="24" viewBox="0 0 24 24" fill="none" xmlns="http://www.w3.org/2000/svg">
<g clip-path="url(#clip0_1_183)">
<path d="M21.9994 8.64758C20.4056 8.22744 18.943 7.38561 17.7705 6.21312C16.5951 5.03768 15.7521 3.57091 15.3327 1.97134C15.3284 1.95494 15.3284 1.95494 15.2041 1.38367C15.2001 1.3653 15.1961 1.34706 15.1921 1.32878C13.2425 2.06627 11.607 3.08899 10.3114 4.38462C8.86198 5.83399 7.74565 7.72709 6.99326 10.0114C6.43493 11.7065 6.16985 13.3528 6.0445 14.5848L0.670556 14.9532C0.667931 14.9534 0.665399 14.9539 0.662774 14.9541C0.64843 14.9553 0.634227 14.9572 0.620071 14.9592C0.610602 14.9605 0.601087 14.9617 0.591805 14.9634C0.580274 14.9655 0.568883 14.9684 0.557493 14.9711C0.545868 14.9738 0.534243 14.9763 0.522852 14.9796C0.514415 14.982 0.506258 14.9851 0.497915 14.9879C0.484274 14.9924 0.470586 14.9968 0.457415 15.0021C0.450993 15.0046 0.444758 15.0078 0.43843 15.0105C0.424039 15.0168 0.409649 15.0231 0.395821 15.0302C0.389071 15.0337 0.382649 15.0378 0.375992 15.0415C0.363196 15.0487 0.350352 15.0557 0.338117 15.0637C0.328836 15.0696 0.32007 15.0763 0.311117 15.0827C0.30207 15.0892 0.292836 15.0953 0.284117 15.1022C0.272727 15.1111 0.261945 15.1209 0.25107 15.1306C0.245305 15.1358 0.239305 15.1406 0.233727 15.1459C0.222523 15.1566 0.21207 15.168 0.201523 15.1795C0.196695 15.1847 0.191633 15.1897 0.186992 15.195C0.177805 15.2057 0.16932 15.217 0.160742 15.2282C0.155258 15.2354 0.149586 15.2423 0.144383 15.2497C0.137726 15.2591 0.131679 15.2691 0.125492 15.2789C0.11907 15.2891 0.112508 15.2991 0.106601 15.3096C0.102101 15.3176 0.0981169 15.3259 0.0938981 15.3341C0.087195 15.3472 0.0805856 15.3603 0.0746794 15.3738C0.073695 15.3761 0.0723825 15.3782 0.0713981 15.3806C0.0691481 15.386 0.0676012 15.3914 0.0654918 15.3968C0.0599137 15.4109 0.0545699 15.425 0.0499293 15.4394C0.0470231 15.4484 0.0446324 15.4573 0.0421012 15.4663C0.0385387 15.4792 0.0350699 15.4921 0.0322105 15.5052C0.029773 15.5163 0.027898 15.5274 0.026023 15.5385C0.0241949 15.5496 0.0223668 15.5606 0.0210542 15.5718C0.0194605 15.5853 0.018523 15.5987 0.0176792 15.6121C0.0171167 15.6213 0.0165074 15.6305 0.0163199 15.6398C0.0159917 15.655 0.0164605 15.6702 0.0171167 15.6853C0.0173511 15.691 0.017023 15.6967 0.0174449 15.7025C0.0176324 15.7051 0.018148 15.7076 0.0183355 15.7102C0.0194136 15.7236 0.0211949 15.7368 0.023023 15.75C0.0243824 15.7599 0.0256011 15.7699 0.0273824 15.7797C0.0293511 15.7904 0.0318355 15.801 0.034273 15.8115C0.0370387 15.8236 0.0397574 15.8356 0.0431324 15.8474C0.045523 15.8557 0.0483356 15.8639 0.0510074 15.8721C0.0554137 15.8855 0.0598668 15.8989 0.0650231 15.912C0.0678356 15.9191 0.07107 15.9261 0.0741169 15.9332C0.0798825 15.9465 0.0857888 15.9598 0.0923513 15.9726C0.0961013 15.98 0.100226 15.9871 0.104258 15.9944C0.11082 16.0062 0.117429 16.0179 0.124648 16.0293C0.129851 16.0376 0.135476 16.0456 0.141054 16.0537C0.147758 16.0634 0.154508 16.073 0.161633 16.0823C0.16857 16.0913 0.175836 16.1001 0.183242 16.1088C0.189851 16.1166 0.196508 16.1243 0.203445 16.1318C0.211836 16.1408 0.220508 16.1496 0.229414 16.1582C0.236352 16.1649 0.243336 16.1715 0.250555 16.178C0.259789 16.1862 0.269211 16.1942 0.278914 16.202C0.287024 16.2085 0.295274 16.2148 0.303664 16.2209C0.312805 16.2276 0.322039 16.2342 0.331602 16.2405C0.342102 16.2474 0.352883 16.2539 0.363758 16.2603C0.371774 16.265 0.379742 16.2698 0.387993 16.2742C0.402243 16.2818 0.416868 16.2887 0.431633 16.2953C0.436133 16.2974 0.440305 16.2998 0.444852 16.3018L0.456243 16.3066C0.456946 16.3069 0.457649 16.3072 0.458352 16.3075L5.53131 18.4545L7.71551 23.5735C7.71659 23.576 7.71794 23.5784 7.71902 23.581C7.7224 23.5885 7.72605 23.596 7.72966 23.6035C7.73552 23.6156 7.74162 23.6275 7.74809 23.639C7.75141 23.645 7.75474 23.651 7.75826 23.6569C7.76763 23.6727 7.77752 23.688 7.78793 23.7028C7.78901 23.7043 7.78994 23.7059 7.79102 23.7074C7.80377 23.7252 7.81737 23.7422 7.83152 23.7586C7.83246 23.7596 7.83345 23.7606 7.83443 23.7617C7.84732 23.7763 7.86077 23.7903 7.87465 23.8037C7.8777 23.8066 7.88079 23.8095 7.88388 23.8123C7.89687 23.8244 7.91023 23.8359 7.92391 23.8468C7.92687 23.8491 7.92968 23.8516 7.93263 23.8539C7.94871 23.8663 7.96521 23.878 7.98223 23.8889C7.98705 23.892 7.99212 23.8948 7.99704 23.8978C8.00918 23.9051 8.02146 23.9122 8.03398 23.9188C8.04129 23.9227 8.0487 23.9264 8.0562 23.93C8.06791 23.9357 8.07982 23.9409 8.09177 23.9459C8.09866 23.9488 8.10537 23.9519 8.1124 23.9545C8.1304 23.9614 8.14868 23.9674 8.1672 23.9727C8.17348 23.9745 8.17985 23.976 8.18618 23.9777C8.20146 23.9816 8.21688 23.9851 8.23235 23.988C8.23774 23.989 8.24304 23.99 8.24848 23.9909C8.28584 23.9971 8.32381 24.0005 8.3621 24.0005C8.39145 24.0005 8.42093 23.998 8.45041 23.9942C8.46682 23.9921 8.48323 23.99 8.49921 23.9868C8.50338 23.986 8.50746 23.9847 8.51163 23.9838C8.53034 23.9797 8.54885 23.9752 8.56695 23.9696C8.57168 23.9682 8.57632 23.9663 8.58101 23.9648C8.59835 23.959 8.61546 23.953 8.63224 23.9459C8.63398 23.9452 8.63576 23.9447 8.63754 23.944C8.6426 23.9418 8.64724 23.9391 8.65221 23.9368C8.66604 23.9305 8.67977 23.924 8.69309 23.9169C8.70185 23.9122 8.71024 23.9072 8.71873 23.9022C8.72909 23.896 8.73935 23.8899 8.74934 23.8832C8.75918 23.8767 8.76874 23.8699 8.77821 23.863C8.78623 23.857 8.7941 23.851 8.80188 23.8448C8.81187 23.8368 8.82162 23.8285 8.83109 23.82C8.83793 23.8138 8.84459 23.8075 8.8512 23.8011C8.86038 23.7921 8.86938 23.7831 8.87806 23.7737C8.88471 23.7665 8.89109 23.759 8.89742 23.7515C8.90506 23.7425 8.9126 23.7335 8.91973 23.7242C8.92671 23.7151 8.93318 23.7057 8.93974 23.6962C8.94546 23.6879 8.95127 23.6796 8.95667 23.6711C8.96374 23.6598 8.97026 23.6482 8.97673 23.6365C8.98081 23.6291 8.98503 23.6218 8.98882 23.6143C8.99534 23.6014 9.00115 23.5882 9.00692 23.5749C9.00996 23.5678 9.0132 23.5608 9.01601 23.5537C9.02112 23.5406 9.02553 23.5272 9.02988 23.5138C9.03256 23.5056 9.03537 23.4975 9.03776 23.4892C9.04109 23.4775 9.04371 23.4655 9.04643 23.4536C9.04887 23.4429 9.05145 23.4323 9.05337 23.4215C9.05506 23.412 9.05623 23.4023 9.05754 23.3926C9.05942 23.3791 9.06124 23.3656 9.06232 23.3521C9.06251 23.3498 9.06293 23.3477 9.06312 23.3454L9.43404 17.9356C10.6638 17.8087 12.3053 17.5419 13.9942 16.9833C16.2689 16.2311 18.1547 15.1171 19.5995 13.6723C20.8878 12.3839 21.9062 10.7594 22.6427 8.82425C22.3093 8.73275 22.0313 8.65634 21.9994 8.64758Z" fill="white"/>
<path d="M23.9816 1.00151C23.9732 0.449322 23.534 0.0101958 22.9818 0.00180519C22.1976 -0.0102417 20.1145 0.0223364 17.7003 0.576916C17.3009 0.668697 16.9118 0.770229 16.5326 0.881088C16.5452 0.938745 16.5598 1.00587 16.577 1.08485C16.6293 1.32532 16.6825 1.56978 16.6953 1.62842C17.0525 2.98142 17.7677 4.22324 18.7639 5.21947C19.7613 6.21679 21.0048 6.93262 22.3602 7.28943C22.3665 7.29112 22.3676 7.2914 23.0905 7.4901C23.2059 7.09851 23.3115 6.69632 23.4064 6.28302C23.961 3.86881 23.9934 1.78521 23.9816 1.00151ZM20.8483 4.14252C20.8319 4.15897 20.8146 4.17439 20.7968 4.18888C20.779 4.20341 20.7603 4.217 20.7415 4.23008C20.7223 4.24274 20.7026 4.25445 20.682 4.26524C20.6618 4.27602 20.6413 4.28586 20.6202 4.29477C20.5991 4.3032 20.5771 4.31122 20.5556 4.31774C20.5335 4.3243 20.5111 4.33039 20.4885 4.33461C20.4661 4.3393 20.4431 4.34258 20.4201 4.34492C20.3977 4.34727 20.3743 4.34867 20.3513 4.34867C20.3283 4.34867 20.3049 4.34727 20.282 4.34492C20.2595 4.34258 20.2365 4.3393 20.2141 4.33461C20.1916 4.33035 20.1691 4.32425 20.1471 4.31774C20.1255 4.31117 20.1035 4.30316 20.0824 4.29477C20.0613 4.28591 20.0403 4.27606 20.0201 4.26524C19.9999 4.25445 19.9803 4.24274 19.9611 4.23008C19.9419 4.21695 19.9236 4.20336 19.9058 4.18888C19.888 4.1743 19.8707 4.15888 19.8543 4.14252C19.7236 4.01183 19.6486 3.83052 19.6486 3.64597C19.6486 3.623 19.6496 3.59961 19.6519 3.57664C19.6543 3.55367 19.658 3.53122 19.6623 3.50872C19.667 3.48627 19.6726 3.46377 19.6791 3.44173C19.6861 3.4197 19.6937 3.39819 19.7026 3.37709C19.7114 3.356 19.7213 3.33495 19.7316 3.3148C19.7424 3.29464 19.7546 3.27453 19.7673 3.25578C19.7799 3.23656 19.7935 3.21781 19.808 3.20005C19.8225 3.18223 19.8384 3.16536 19.8543 3.149C19.8708 3.13259 19.8881 3.11712 19.9059 3.10264C19.9237 3.08811 19.9419 3.07451 19.9611 3.06144C19.9803 3.04878 20 3.03706 20.0201 3.02633C20.0403 3.01559 20.0614 3.00575 20.0824 2.99726C20.1035 2.9884 20.1255 2.98044 20.1471 2.97383C20.1692 2.96726 20.1916 2.96164 20.2141 2.957C20.2366 2.95226 20.2595 2.94903 20.282 2.94664C20.3279 2.94195 20.3748 2.94195 20.4202 2.94664C20.4431 2.94903 20.4661 2.95226 20.4886 2.957C20.5111 2.96169 20.5336 2.96731 20.5556 2.97383C20.5772 2.98044 20.5991 2.9884 20.6202 2.99726C20.6413 3.00575 20.6619 3.01559 20.6821 3.02633C20.7026 3.03711 20.7223 3.04883 20.7416 3.06144C20.7603 3.07456 20.779 3.08816 20.7968 3.10264C20.8147 3.11722 20.832 3.13269 20.8484 3.149C20.9791 3.27969 21.054 3.461 21.054 3.64602C21.054 3.83047 20.979 4.01178 20.8483 4.14252Z" fill="white"/>
</g>
<defs>
<clipPath id="clip0_1_183">
<rect width="24" height="24" fill="white"/>
</clipPath>
</defs>
</svg>
