<svg width="24" height="24" viewBox="0 0 24 24" fill="none" xmlns="http://www.w3.org/2000/svg">
<g clip-path="url(#clip0_1_136)">
<path d="M8.49989 16.79C8.49989 19.18 9.47989 21.74 11.0599 23.46C10.0899 23.82 9.03989 24 7.94989 24C3.53989 24 0.079895 20.96 0.079895 17.09C0.079895 15.63 0.549895 14.24 1.43989 13.05C1.45989 13.03 1.46989 13.01 1.48989 13C3.33989 10.42 3.35989 8.31 3.35989 8.23C3.35989 5.89 5.41989 4 7.94989 4C10.4899 4 12.5399 5.89 12.5399 8.21C12.5399 8.36 12.5599 9.33 13.1499 10.74C10.2699 11.45 8.49989 13.67 8.49989 16.79Z" fill="white"/>
<path d="M12 0C9.24297 0 6.99997 2.243 6.99997 5C6.99997 5.553 7.44697 6 7.99997 6C8.55297 6 8.99997 5.553 8.99997 5C8.99997 3.346 10.346 2 12 2C12.553 2 13 1.553 13 1C13 0.447 12.553 0 12 0Z" fill="white"/>
<path d="M21 8.00002C18.243 8.00002 16 10.243 16 13C16 13.553 16.447 14 17 14C17.553 14 18 13.553 18 13C18 11.346 19.346 10 21 10C21.553 10 22 9.55302 22 9.00002C22 8.44702 21.553 8.00002 21 8.00002Z" fill="white"/>
<path d="M18.751 12C18.147 12 17.56 12.114 17 12.341C16.44 12.114 15.853 12 15.249 12C11.962 12 9.99997 13.79 9.99997 16.788C9.99997 20.123 12.293 24 15.249 24C15.853 24 16.44 23.886 16.999 23.658C17.561 23.886 18.148 24 18.751 24C21.707 24 24 20.123 24 16.788C24 13.79 22.038 12 18.751 12Z" fill="white"/>
</g>
<defs>
<clipPath id="clip0_1_136">
<rect width="24" height="24" fill="white"/>
</clipPath>
</defs>
</svg>
