<svg width="24" height="24" viewBox="0 0 24 24" fill="none" xmlns="http://www.w3.org/2000/svg">
<g clip-path="url(#clip0_1_151)">
<path d="M23.8056 10.3698C23.8056 9.72944 23.5939 9.12161 23.2039 8.62631C23.4712 7.65886 23.2056 6.60219 22.4788 5.87538C22.1456 5.54209 21.7454 5.30272 21.3035 5.16967C21.1283 4.6859 20.8489 4.24539 20.4813 3.87782C19.2753 2.6719 17.407 2.52223 16.0364 3.42908C16.0333 3.42583 16.0301 3.42249 16.027 3.41929C15.3718 2.74281 14.4882 2.36286 13.5391 2.34944C12.5893 2.3364 11.6976 2.69055 11.0243 3.34754C10.5968 3.76464 10.285 4.28061 10.1129 4.84433C9.14745 4.81434 8.19112 5.18163 7.49736 5.87534C6.46338 6.90931 6.18908 8.46769 6.75261 9.77389C6.1565 10.3381 5.07639 11.4839 4.23159 13.0672C2.6049 16.1159 2.63899 19.3133 4.33004 22.3137C4.73066 23.0245 5.38374 23.5601 6.16893 23.8219C6.16248 23.8197 6.15622 23.8172 6.14977 23.815V23.3057C6.16107 21.061 6.71499 18.8856 7.79609 16.8364C8.13655 16.191 8.53011 15.5582 8.97292 14.9402L8.30472 12.9356L9.64473 12.4889L10.0196 13.6134C10.4259 13.1439 10.8624 12.6849 11.3284 12.2379C11.4658 12.1062 11.603 11.9781 11.7398 11.8534L11.1145 9.35241L12.4848 9.00979L12.9404 10.8321C14.8123 9.3461 16.3518 8.58633 16.4336 8.54641L17.0536 9.81551C17.04 9.82224 16.2556 10.2109 15.1467 10.9648L16.2604 11.336L15.8138 12.676L13.756 11.9901C13.2764 12.3728 12.7758 12.8049 12.2766 13.2857C11.2915 14.2347 10.4597 15.2217 9.78179 16.2435H11.0935V17.6559H8.95451C8.03923 19.4483 7.57222 21.3376 7.56228 23.3094V24.0001C8.42549 23.9239 9.24453 23.5054 9.83273 22.7967C11.3248 20.999 14.3254 21.5447 14.3539 21.5502L15.0058 21.6769L15.1724 21.0341C15.4486 19.9688 15.399 19.086 15.211 18.383C16.055 18.4484 16.9191 18.2127 17.6253 17.675C19.2265 18.4552 21.1914 18.1493 22.4788 16.8618C23.7684 15.5723 24.0733 13.6033 23.2883 12.0005C23.6244 11.5269 23.8056 10.9623 23.8056 10.3698Z" fill="white"/>
<path d="M5.15496 9.38213C5.02464 8.75481 5.01772 8.10493 5.13754 7.4632C5.32163 6.47734 5.79232 5.58287 6.49869 4.87659C7.21679 4.15845 8.15349 3.67957 9.15267 3.50443C9.38775 3.07457 9.68611 2.67983 10.038 2.3365C10.8615 1.5329 11.9231 1.05102 13.0633 0.954781C12.3235 0.35194 11.3848 0 10.3873 0C8.86015 0 7.46675 0.818337 6.71612 2.12063C4.16614 2.19182 2.09297 4.20341 1.92361 6.7281C1.0557 7.22454 0.499985 8.15682 0.499985 9.18104C0.499985 9.6722 0.623482 10.1427 0.860212 10.5623C0.668775 11.1256 0.451114 12.0563 0.323568 13.032C0.146491 14.387 0.0632028 16.4092 0.671694 18.3482C1.02505 19.4741 1.56371 20.4415 2.282 21.2461C1.85765 20.0925 1.63707 18.9136 1.62436 17.7236C1.60515 15.9213 2.06307 14.1309 2.98546 12.4023C3.67507 11.1099 4.50725 10.0796 5.15496 9.38213Z" fill="white"/>
</g>
<defs>
<clipPath id="clip0_1_151">
<rect width="24" height="24" fill="white"/>
</clipPath>
</defs>
</svg>
