<svg width="24" height="24" viewBox="0 0 24 24" fill="none" xmlns="http://www.w3.org/2000/svg">
<path d="M15.9936 3.12234C16.8198 3.07945 17.4782 2.40202 17.4782 1.5652C17.4782 0.700734 16.7774 0 15.913 0H8.0869C7.22243 0 6.52165 0.700734 6.52165 1.5652C6.52165 2.40202 7.18006 3.07945 8.00628 3.1223C7.51765 7.54125 5.73907 7.83234 5.73907 12.2772V21.6522C5.73907 22.9468 6.79226 24 8.0869 24H15.913C17.2077 24 18.2608 22.9468 18.2608 21.6522V12.2772C18.2608 7.82489 16.4834 7.55227 15.9936 3.12234ZM11.4889 9.67533C10.4048 8.95256 9.11918 8.67994 7.89879 8.83088C8.04054 8.42897 8.20522 8.03531 8.39567 7.65436C9.03232 6.38025 9.42828 4.64616 9.58029 3.13041H14.4196C14.5716 4.64616 14.9675 6.38025 15.6042 7.65436C15.8695 8.18484 16.0879 8.739 16.2581 9.30764C15.6845 9.59231 13.8002 11.2162 11.4889 9.67533Z" fill="white"/>
</svg>
