<svg width="24" height="24" viewBox="0 0 24 24" fill="none" xmlns="http://www.w3.org/2000/svg">
<g clip-path="url(#clip0_1_165)">
<path d="M4.7893 21.3417L3.38259 14.9062L2.19042 15.668C0.839061 16.4789 0 17.9613 0 19.5372C0 20.8645 0.584999 22.1135 1.60537 22.9636C2.6264 23.8137 3.95985 24.1632 5.26518 23.9235L5.97988 23.7921C5.37271 23.1062 4.94118 22.2764 4.7893 21.3417Z" fill="white"/>
<path d="M22.2709 0.924889C21.4785 0.319968 20.5316 0 19.5326 0C17.9567 0 16.4743 0.839061 15.6736 2.17392L14.9014 3.38259L21.449 4.81133C22.3116 4.94901 23.1148 5.37744 23.788 5.97707L23.9271 5.21985C24.2258 3.58565 23.5934 1.93701 22.2709 0.924889Z" fill="white"/>
<path d="M11.818 22.426L5.80778 12.4085C5.52658 11.9403 5.33922 11.4273 5.23047 10.897C4.67552 11.679 4.37233 12.7005 4.57024 13.6815L6.17767 21.0444C6.35214 22.1197 6.99963 23.0377 7.95475 23.563C8.90988 24.0876 10.0319 24.1425 11.0337 23.7134L12.3533 23.1254C12.1612 22.9055 11.9717 22.682 11.818 22.426Z" fill="white"/>
<path d="M21.7024 13.0237L11.6849 7.01356C10.3432 6.20811 8.63276 6.41825 7.5252 7.5251C6.41792 8.63355 6.20806 10.341 7.01365 11.6848L13.0239 21.7022C14.2018 23.6659 16.9091 23.9962 18.5246 22.3792L22.3794 18.5244C23.9984 16.9055 23.6626 14.1996 21.7024 13.0237Z" fill="white"/>
<path d="M23.5636 7.9548C23.0383 6.99968 22.1203 6.3522 21.0821 6.18532L13.6704 4.56757C12.7212 4.37736 11.7056 4.68279 10.927 5.22589C11.4388 5.33431 11.9398 5.52645 12.4086 5.80784L22.4261 11.818C22.6813 11.9713 22.9119 12.1507 23.1307 12.3411L23.714 11.033C24.1425 10.0333 24.0875 8.90922 23.5636 7.9548Z" fill="white"/>
</g>
<defs>
<clipPath id="clip0_1_165">
<rect width="24" height="24" fill="white"/>
</clipPath>
</defs>
</svg>
