<svg width="44" height="44" viewBox="0 0 44 44" fill="none" xmlns="http://www.w3.org/2000/svg">
<rect width="44" height="44" rx="22" fill="#7FB462"/>
<path d="M19 26C20.763 26 22.37 25.34 23.603 24.261L24.94 27.061C24.94 27.061 25.215 27.285 25.593 27.657C25.98 28.02 26.489 28.511 26.977 29.024L28.335 30.416L28.939 31.062L31.06 28.941L30.414 28.337L29.022 26.979C28.5536 26.5304 28.0978 26.0689 27.655 25.595C27.283 25.217 27.059 24.942 27.059 24.942L24.259 23.605C25.3804 22.333 25.9994 20.6957 26 19C26 15.141 22.859 12 19 12C15.141 12 12 15.141 12 19C12 22.859 15.141 26 19 26Z" fill="white"/>
</svg>
