<?xml version="1.0" encoding="utf-8"?>
<!-- Generator: Adobe Illustrator 25.2.1, SVG Export Plug-In . SVG Version: 6.00 Build 0)  -->
<svg version="1.1" xmlns="http://www.w3.org/2000/svg" xmlns:xlink="http://www.w3.org/1999/xlink" x="0px" y="0px"
	 viewBox="0 0 500 500" style="enable-background:new 0 0 500 500;" xml:space="preserve">
<style type="text/css">
	.st0{opacity:0.7;fill:#F0F0F0;}
	.st1{fill:#E0E0E0;}
	.st2{fill:#7FB462;}
	.st3{opacity:0.1;}
	.st4{fill:#FFFFFF;}
	.st5{fill:#455A64;}
	.st6{fill:#263238;}
	.st7{fill:#709E56;}
	.st8{opacity:0.2;}
	.st9{opacity:0.4;fill:#FFFFFF;}
	.st10{fill:#37474F;}
	.st11{fill:#9A4A4D;}
	.st12{opacity:0.1;fill:#7FB462;}
	.st13{fill:#B16668;}
	.st14{opacity:0.5;}
	.st15{fill:#F0F0F0;}
</style>
<g id="Floor">
	<path id="Floor_22_" class="st0" d="M99.67,433.12c82.5,44.75,216.26,44.75,298.76,0c82.5-44.75,82.5-117.3,0-162.05
		c-82.5-44.75-216.26-44.75-298.77,0C17.16,315.81,17.16,388.37,99.67,433.12z"/>
</g>
<g id="Shadow">
	<ellipse id="Shadow_23_" class="st1" cx="150.39" cy="305.55" rx="57.03" ry="27.18"/>
</g>
<g id="Plants">
	<g id="Plants_16_">
		<g id="Plants_18_">
			<g id="XMLID_3609_">
				<g id="XMLID_3614_">
					<path id="XMLID_3615_" class="st2" d="M78.72,303.78l6.41-3.66c0,0,3.07-16.94,0.78-31.5c-3.23-20.48-17.17-27.54-22.24-25.5
						c-5.06,2.04-6.25,8.1,2.89,19.93C71.96,270.02,78.9,284.78,78.72,303.78z"/>
				</g>
				<g id="XMLID_3612_" class="st3">
					<path id="XMLID_3613_" d="M78.72,303.78l6.41-3.66c0,0,3.07-16.94,0.78-31.5c-3.23-20.48-17.17-27.54-22.24-25.5
						c-5.06,2.04-6.25,8.1,2.89,19.93C71.96,270.02,78.9,284.78,78.72,303.78z"/>
				</g>
				<g id="XMLID_3610_">
					<path id="XMLID_3611_" class="st4" d="M81.05,295.65c-0.02,0-0.04,0-0.06,0c-0.25-0.03-0.42-0.27-0.39-0.52
						c2.65-19.17-5.06-40.17-13.72-48.64c-0.18-0.18-0.18-0.47-0.01-0.65c0.18-0.18,0.47-0.18,0.65-0.01
						c8.82,8.62,16.68,29.96,13.99,49.41C81.47,295.48,81.27,295.65,81.05,295.65z"/>
				</g>
			</g>
			<g id="XMLID_3602_">
				<g id="XMLID_3607_">
					<path id="XMLID_3608_" class="st2" d="M60.94,314.06c-1.01,0.58-3.1-0.69-3.9-1.23c-1.37-0.92-2.48-2.22-3.21-3.69
						c-0.86-1.71-1.07-3.55-0.8-5.44c0.14-0.98,0.41-1.94,0.69-2.89c0.27-0.94,0.54-1.87,0.81-2.81c0.27-0.92,0.53-1.88,0.41-2.83
						c-0.25-1.92-1.95-3.27-3.5-4.43c-1.71-1.28-3.5-2.98-3.49-5.29c0.01-1.78,0.93-3.44,2.04-4.84c1.11-1.4,2.42-2.64,3.42-4.11
						c0.72-1.06,1.28-2.31,1.16-3.59c-0.07-0.79-0.4-1.54-0.78-2.24c-0.82-1.51-1.89-2.88-2.46-4.5c-0.56-1.62-0.48-3.63,0.78-4.79
						c1.04-0.95,2.58-1.08,3.98-0.99c1.3,0.09,2.56,0.67,3.7,1.3c3.67,2.04,5.76,6.39,9.66,7.96c1.5,0.61,3.15,0.74,4.71,1.15
						c1.57,0.41,3.16,1.21,3.89,2.66c1.43,2.86-1.22,6.37-0.22,9.41c0.89,2.68,3.5,3.71,4.96,6.13c0.64,1.06,0.79,2.28,0.68,3.51
						c-0.17,2.08-0.48,3.61-1.48,5.93c-0.83,1.92-3.26,5.35-3.26,5.35C78.66,303.84,61.09,313.97,60.94,314.06z"/>
				</g>
				<g id="XMLID_3605_">
					<path id="XMLID_3606_" class="st4" d="M71.34,308.51c-0.01,0-0.01,0-0.01,0c-0.26-0.01-0.45-0.22-0.44-0.48
						c0.76-18.14-7.79-38.17-14.01-43.99c-0.18-0.17-0.19-0.46-0.02-0.65c0.17-0.18,0.46-0.19,0.65-0.02
						c6.34,5.94,15.06,26.3,14.3,44.7C71.79,308.32,71.59,308.51,71.34,308.51z"/>
				</g>
				<g id="XMLID_3603_">
					<path id="XMLID_3604_" class="st4" d="M68.63,287.08c-0.04,0-0.09-0.01-0.13-0.02c-5.83-1.8-13.09-2.12-13.17-2.12
						c-0.25-0.01-0.45-0.22-0.44-0.48c0.01-0.25,0.2-0.45,0.48-0.44c0.07,0,7.45,0.33,13.4,2.16c0.24,0.07,0.38,0.33,0.3,0.57
						C69,286.95,68.82,287.08,68.63,287.08z"/>
				</g>
			</g>
		</g>
		<g id="Plants_17_">
			<g id="XMLID_3596_">
				<g id="XMLID_3599_">
					<path id="XMLID_3601_" class="st2" d="M391.77,396.11c3.44-7.5,15.99-20.53,28.24-26.7c12.25-6.16,27.75-7.66,35.07-0.7
						c6.82,6.48,1.07,16.7-11.98,19.22c-13.05,2.53-31.86,4.59-41.76,14.77l-15.91,10.76L391.77,396.11z"/>
					<path id="XMLID_3600_" class="st3" d="M391.77,396.11c3.44-7.5,15.99-20.53,28.24-26.7c12.25-6.16,27.75-7.66,35.07-0.7
						c6.82,6.48,1.07,16.7-11.98,19.22c-13.05,2.53-31.86,4.59-41.76,14.77l-15.91,10.76L391.77,396.11z"/>
				</g>
				<g id="XMLID_3597_">
					<path id="XMLID_3598_" class="st4" d="M386.51,406.11c0.25,0.09,0.53,0.01,0.7-0.21c16.77-23.29,47.02-34.58,61.52-33.49
						c0.33,0.02,0.62-0.22,0.65-0.56c0.03-0.33-0.21-0.62-0.56-0.65c-14.78-1.11-45.57,10.35-62.59,33.98
						c-0.19,0.27-0.13,0.65,0.14,0.84C386.41,406.07,386.46,406.09,386.51,406.11z"/>
				</g>
			</g>
			<g id="XMLID_3591_">
				<g id="XMLID_3594_">
					<path id="XMLID_3595_" class="st2" d="M382.81,424.24c3.14-3.66,11.48-8.25,22.44-10.17c12.13-2.13,25.12,0.3,30.08-3.41
						c5.96-4.46,3.52-12.37-6.47-15.54c-10-3.17-32.56,2.1-44.14,20.31L382.81,424.24z"/>
				</g>
				<g id="XMLID_3592_">
					<path id="XMLID_3593_" class="st4" d="M383.01,418.98c0.22,0.08,0.47,0.03,0.64-0.15c17.91-18.32,38.17-18.33,46.38-15.78
						c0.32,0.1,0.66-0.08,0.75-0.4c0.1-0.32-0.07-0.65-0.4-0.75c-9.08-2.82-29.32-2.61-47.6,16.09c-0.23,0.24-0.23,0.62,0.01,0.85
						C382.86,418.91,382.93,418.95,383.01,418.98z"/>
				</g>
			</g>
		</g>
	</g>
</g>
<g id="Line">
	<g id="Line_1_">
		<g id="Arrow">
			<polygon id="XMLID_3590_" class="st2" points="201.24,330.23 212.98,337 209.07,339.26 224.71,339.26 224.71,330.23 
				220.8,332.48 209.07,325.71 			"/>
		</g>
		<g id="Line_2_">
			<g id="XMLID_3574_">
				<path id="XMLID_3575_" class="st2" d="M231.54,344.17c-0.16,0-0.33-0.04-0.48-0.13l-2.92-1.69c-0.46-0.27-0.62-0.85-0.35-1.32
					c0.27-0.46,0.86-0.62,1.32-0.35l2.92,1.69c0.46,0.27,0.62,0.85,0.35,1.32C232.2,343.99,231.88,344.17,231.54,344.17z"/>
			</g>
			<g id="XMLID_3563_">
				<path id="XMLID_3564_" class="st2" d="M354.57,415.2c-0.16,0-0.33-0.04-0.48-0.13l-5.63-3.25c-0.46-0.27-0.62-0.85-0.35-1.32
					c0.27-0.46,0.86-0.62,1.32-0.35l5.63,3.25c0.46,0.27,0.62,0.85,0.35,1.32C355.23,415.03,354.91,415.2,354.57,415.2z
					 M340.9,407.3c-0.16,0-0.33-0.04-0.48-0.13l-5.63-3.25c-0.46-0.27-0.62-0.85-0.35-1.32c0.27-0.46,0.85-0.62,1.32-0.35l5.63,3.25
					c0.46,0.27,0.62,0.85,0.35,1.32C341.56,407.13,341.24,407.3,340.9,407.3z M327.23,399.41c-0.16,0-0.33-0.04-0.48-0.13
					l-5.63-3.25c-0.46-0.27-0.62-0.85-0.35-1.32c0.27-0.46,0.86-0.62,1.32-0.35l5.63,3.25c0.46,0.27,0.62,0.85,0.35,1.32
					C327.89,399.24,327.57,399.41,327.23,399.41z M313.56,391.52c-0.16,0-0.33-0.04-0.48-0.13l-5.63-3.25
					c-0.46-0.27-0.62-0.85-0.35-1.32c0.27-0.46,0.85-0.62,1.32-0.35l5.63,3.25c0.46,0.27,0.62,0.85,0.35,1.32
					C314.22,391.35,313.9,391.52,313.56,391.52z M299.89,383.63c-0.16,0-0.33-0.04-0.48-0.13l-5.63-3.25
					c-0.46-0.27-0.62-0.85-0.35-1.32c0.27-0.46,0.86-0.62,1.32-0.35l5.63,3.25c0.46,0.27,0.62,0.85,0.35,1.32
					C300.55,383.46,300.23,383.63,299.89,383.63z M286.22,375.74c-0.16,0-0.33-0.04-0.48-0.13l-5.63-3.25
					c-0.46-0.27-0.62-0.85-0.35-1.32c0.27-0.46,0.86-0.62,1.32-0.35l5.63,3.25c0.46,0.27,0.62,0.85,0.35,1.32
					C286.88,375.56,286.56,375.74,286.22,375.74z M272.55,367.84c-0.16,0-0.33-0.04-0.48-0.13l-5.63-3.25
					c-0.46-0.27-0.62-0.85-0.35-1.32c0.27-0.46,0.86-0.62,1.32-0.35l5.63,3.25c0.46,0.27,0.62,0.85,0.35,1.32
					C273.21,367.67,272.89,367.84,272.55,367.84z M258.88,359.95c-0.16,0-0.33-0.04-0.48-0.13l-5.63-3.25
					c-0.46-0.27-0.62-0.85-0.35-1.32c0.27-0.46,0.85-0.62,1.32-0.35l5.63,3.25c0.46,0.27,0.62,0.85,0.35,1.32
					C259.54,359.78,259.22,359.95,258.88,359.95z M245.21,352.06c-0.16,0-0.33-0.04-0.48-0.13l-5.63-3.25
					c-0.46-0.27-0.62-0.85-0.35-1.32c0.27-0.46,0.86-0.62,1.32-0.35l5.63,3.25c0.46,0.27,0.62,0.85,0.35,1.32
					C245.87,351.89,245.55,352.06,245.21,352.06z"/>
			</g>
			<g id="XMLID_3561_">
				<path id="XMLID_3562_" class="st2" d="M365.53,421.52c-0.16,0-0.33-0.04-0.48-0.13l-2.92-1.69c-0.46-0.27-0.62-0.85-0.35-1.32
					c0.27-0.46,0.86-0.62,1.32-0.35l2.92,1.69c0.46,0.27,0.62,0.85,0.35,1.32C366.19,421.35,365.86,421.52,365.53,421.52z"/>
			</g>
		</g>
	</g>
</g>
<g id="Pin">
	<g id="Pin_1_">
		<g id="XMLID_3554_">
			<g id="XMLID_3555_">
				<path id="XMLID_3556_" class="st5" d="M429.3,169.32C429.3,169.31,429.29,169.31,429.3,169.32c-0.29-0.17-0.62-0.38-0.91-0.54
					l-27.94-16.04c-6.27-4.2-13.64-6.39-21.82-6.39c-9.77,0-19.63,3.54-31.24,9.97c-40.57,22.48-75.24,87.29-75.24,129.86v11.78
					c0,51.59,67.84,114.54,67.84,114.54l28.13,16.25c0.04,0.05,0.08,0.05,0.13,0.05c-0.94-1.11,29.89-46.09,58.96-133.82
					C459.4,197.85,429.9,169.88,429.3,169.32z M381.82,323.54c-22.97,13.27-42.23,6.32-47.68-15.09
					c-10.53-1.48-18.15-9.55-20.49-22.85c-2.96-42.96,19.87-77.19,52.55-91.08c13.97-5.08,25.68-1.45,31.94,9.06
					c19.2-3.29,32.93,9.86,32.93,34.65C431.08,269.63,409.03,307.85,381.82,323.54z"/>
			</g>
		</g>
		<path id="XMLID_3553_" class="st6" d="M431.08,238.23c0,31.39-22.04,69.61-49.26,85.31c-22.97,13.27-42.23,6.32-47.68-15.09
			c6.9,0.99,15.07-0.86,23.83-5.92c24.92-14.37,45.11-49.35,45.11-78.1c0-8.53-1.78-15.56-4.94-20.85
			C417.34,200.29,431.08,213.45,431.08,238.23z"/>
		<g id="XMLID_3526_">
			<g id="XMLID_3550_">
				<polygon id="XMLID_3552_" class="st7" points="343.43,305.45 359.07,314.48 359.07,284.2 343.43,275.17 				"/>
				<polygon id="XMLID_3551_" class="st8" points="343.43,305.45 359.07,314.48 359.07,284.2 343.43,275.17 				"/>
			</g>
			<polygon id="XMLID_3549_" class="st2" points="418.03,250.16 381.8,233.18 345.57,292 359.07,284.2 359.07,314.48 376.19,304.59 
				376.19,284.79 387.4,278.32 387.4,298.12 404.54,288.22 404.54,257.94 			"/>
			<g id="XMLID_3546_">
				<polygon id="XMLID_3548_" class="st7" points="366.16,224.15 381.8,233.18 345.57,292 329.93,282.97 				"/>
				<polygon id="XMLID_3547_" class="st3" points="366.16,224.15 381.8,233.18 345.57,292 329.93,282.97 				"/>
			</g>
			<g id="XMLID_3530_">
				<polygon id="XMLID_3532_" class="st7" points="366.16,224.15 381.8,233.18 418.03,250.16 402.39,241.13 				"/>
				<polygon id="XMLID_3531_" class="st9" points="366.16,224.15 381.8,233.18 418.03,250.16 402.39,241.13 				"/>
			</g>
			<g id="XMLID_3527_">
				<polygon id="XMLID_3529_" class="st7" points="376.19,304.59 387.4,298.12 387.4,278.32 376.19,284.79 				"/>
				<polygon id="XMLID_3528_" class="st8" points="376.19,304.59 387.4,298.12 387.4,278.32 376.19,284.79 				"/>
			</g>
		</g>
		<g id="XMLID_3521_">
			<path id="XMLID_3522_" class="st10" d="M429.3,169.32C429.3,169.31,429.29,169.31,429.3,169.32c-0.29-0.17-0.62-0.38-0.91-0.54
				c-13.56-7.62-31.68-6.6-51.59,4.88c-30.02,17.35-56,53.79-68.29,92.03c-4.88,15.15-6.94,23.17-6.94,37.83v11.77
				c0,39.75,44.33,93.22,65.05,112.31c0.49,0.45,0.98,0.82,1.51,1.14c0.04,0.05,0.08,0.05,0.13,0.05c5.01,3.09,11.81,1.34,14.49-4.2
				c17.87-36.6,69.96-146.83,69.96-189.55v-11.77C452.7,196.77,443.74,178,429.3,169.32z M334.14,308.45
				c-0.29-1.1-0.54-2.23-0.74-3.41c-0.58-3.07-0.85-6.39-0.85-9.94c0-31.39,22.04-69.6,49.27-85.3c3.06-1.75,6.08-3.18,8.98-4.24
				c2.52-0.91,4.97-1.58,7.34-1.98c19.2-3.29,32.93,9.86,32.93,34.65c0,31.39-22.04,69.61-49.26,85.31
				C358.85,336.81,339.59,329.86,334.14,308.45z"/>
		</g>
	</g>
</g>
<g id="Character">
	<g id="Character_1_">
		<g id="XMLID_3516_">
			<path id="XMLID_3520_" class="st6" d="M180.6,127.58h-20.98c-9.49,0-17.18-7.69-17.18-17.18v-4.85
				c0-10.54,8.54-19.08,19.08-19.08l0,0c10.54,0,19.08,8.54,19.08,19.08V127.58z"/>
			<g id="XMLID_3517_">
				<path id="XMLID_3519_" class="st6" d="M145.47,96.05l-4.42-2.38c0.63-1.27,2.13-1.76,3.35-1.11
					C145.61,93.23,146.09,94.78,145.47,96.05z"/>
				<path id="XMLID_3518_" class="st6" d="M145.84,96.55l-4.7,1.76c-0.54-1.31,0.08-2.76,1.38-3.25
					C143.81,94.58,145.3,95.25,145.84,96.55z"/>
			</g>
		</g>
		<g id="XMLID_3512_">
			<polygon id="XMLID_3515_" class="st11" points="187.56,151.93 193.34,162.52 185.31,169.4 177.28,156.96 			"/>
			<path id="XMLID_3514_" class="st2" d="M171.4,129.21c3.02,0.25,6.16,1.54,8.33,6.03c2.17,4.49,8.96,18.48,8.96,18.48
				s-1.53,6.08-9.44,6.88l-3.14-4.82L171.4,129.21z"/>
			<path id="XMLID_3513_" class="st12" d="M171.4,129.21c3.02,0.25,6.16,1.54,8.33,6.03c2.17,4.49,8.96,18.48,8.96,18.48
				s-1.53,6.08-9.44,6.88l-3.14-4.82L171.4,129.21z"/>
		</g>
		<g id="XMLID_3503_">
			<path id="XMLID_3511_" class="st6" d="M118.01,274.6c-1.51-0.77-2.46,1.14-3.83,2.67c-0.96,1.08-2.45,2.78-2.67,4
				c-0.33,1.81,1.31,4.67,3.12,6.24c1.81,1.57,3.91,2.7,4.57,6.15c0.66,3.45,2,5.5,5.58,7.05c3.92,1.69,9.17,1.15,10.95,0
				c2.11-1.36,0.18-2.86-2.77-7.09c-3.86-5.52-6.86-9.47-6.86-14.62L118.01,274.6z"/>
			<path id="XMLID_3510_" class="st13" d="M121.09,270.07l-3.17,4.64c-1.37,2.01-0.95,4.82,1.07,6.19c0.03,0.02,0.06,0.04,0.1,0.07
				c1.93,1.25,4.51,0.75,6.07-0.94l4.94-5.4L121.09,270.07z"/>
			<path id="XMLID_3509_" class="st10" d="M178.06,181.92c0.2,5.92,1.24,27.5-3.07,38.83c-4.04,10.6-7.7,16.28-8.99,18.48
				c-1.29,2.2-38.36,38.3-38.36,38.3s-6.29-0.46-7.29-6.56c0,0,15.19-25.82,18.48-31.12c3.29-5.3,14.94-13.42,14.94-13.42
				l-1.06-49.65L178.06,181.92z"/>
			
				<rect id="XMLID_3508_" x="169.72" y="293.1" transform="matrix(-0.9751 0.2217 -0.2217 -0.9751 409.4359 551.953)" class="st13" width="8.04" height="11.71"/>
			<path id="XMLID_3507_" class="st10" d="M164.99,199.99c0,0,3.05-2.56,7.17-8.25c5.99-8.28,5.07-15.63,5.07-15.63h-2.45
				l-32.42,0.66c-3.21,5.27-3.91,13.26-2.83,21.04c2.25,16.15,15.63,44.1,15.63,44.1c-0.19,2.21-1.12,11.49,0.99,19.72
				c3.32,12.99,12.38,34.96,12.38,34.96s5.67,0.81,8.49-2.47c0,0-5.02-44.61-6.37-56.04C169.19,225.71,164.99,199.99,164.99,199.99z
				"/>
			<path id="XMLID_3506_" class="st6" d="M178.08,299.9l-0.25-1.12c0.82,0.16,4.34,6,7.83,8.54c3.82,2.78,7.14,4.42,8.85,5.68
				c2.28,1.68-1.02,5.11-6.65,5.42c-2.79,0.15-7.87-0.7-9.44-2.18c-1.57-1.49-2.7-3.95-3.94-5.01c-1.24-1.07-3.75-2-4.61-3.37
				c-0.47-0.75-0.54-2.62-0.49-4.22c0.05-1.47,0.1-3.08,0.6-3.06c0.04,0.17,0.19,0.85,0.19,0.85c0.71,0.5,2.95,1.14,4.77,1.05
				C176.27,302.41,178.73,302.1,178.08,299.9z"/>
			<path id="XMLID_3505_" class="st6" d="M169.66,230.51c0,0-3.78-26.84-4.67-30.52c0,0,6.66-2.54,8.71-4.86
				c0,0-1.46,3.25-6.23,6.15L169.66,230.51z"/>
			<path id="XMLID_3504_" class="st6" d="M149.64,229.47c0,0,3.9,10.23,5.51,12.44c0,0-0.4,7.61-0.35,9.15l-2.11,1.84
				c0,0-0.1-6.39,0.94-10.26C153.65,242.63,151.01,237.34,149.64,229.47z"/>
		</g>
		<g id="XMLID_3499_">
			<g id="XMLID_3501_">
				<path id="XMLID_3502_" class="st2" d="M176.24,157.89c0.51,4.7,1.82,24.03,1.82,24.03c-15.51,8.28-34.75,2.79-37.69-0.62
					c2.67-8.78,6.51-12.49,8.71-14.82l-5.03-14.02c0,0-0.6-1.43-0.59-1.45c0.31-0.52,7.81-7.28,4.11-17.97
					c-0.57-1.66,0.6-3.41,2.35-3.55l4.45-0.36l12.08-0.35c2.89,0.16,4.95,0.44,4.95,0.44c1.85,1.73,4.77,6.49,6.66,11.33
					C179.28,143.66,180.6,148.65,176.24,157.89z"/>
			</g>
			<polygon id="XMLID_3500_" class="st3" points="147.29,157.52 149.06,150.67 151.25,166.49 146.82,168.95 149.08,166.48 
				146.79,160.09 			"/>
		</g>
		<g id="XMLID_3484_">
			<g id="XMLID_3497_">
				<path id="XMLID_3498_" class="st13" d="M173.78,94.78c2.02,1.19,4.51,6.26,4.26,16.89c-0.21,9.01-3.13,11.23-4.59,11.87
					c-1.47,0.64-4.29,0.25-7.04-0.21v5.41c0,0,4.09,7.57,3.17,10.6c-1.94,0.34-4.51-0.99-8.06-3.41c-3.55-2.42-7.14-6.79-7.14-6.79
					l0.06-12.43c0,0-1.62,1.57-4.36-0.83c-2.26-1.98-3.03-5.32-1.26-7.11c1.76-1.79,5.03-1.3,6.28,1.25c0,0,4.38,0.16,10.22-3.05
					C171.15,103.76,173.39,98.27,173.78,94.78z"/>
			</g>
			<g id="XMLID_3495_">
				<path id="XMLID_3496_" class="st6" d="M167.99,109.4c0.03,0.65-0.45,1.2-1.07,1.23c-0.62,0.03-1.16-0.47-1.19-1.12
					c-0.03-0.65,0.45-1.2,1.07-1.23C167.42,108.25,167.95,108.75,167.99,109.4z"/>
			</g>
			<g id="XMLID_3493_" class="st14">
				<path id="XMLID_3494_" class="st11" d="M168.29,117.04l2.63,0.84c-0.22,0.75-0.98,1.18-1.71,0.94
					C168.48,118.59,168.07,117.79,168.29,117.04z"/>
			</g>
			<g id="XMLID_3491_">
				<path id="XMLID_3492_" class="st6" d="M177.27,105.92l-2.29-1.59c0.42-0.65,1.27-0.83,1.9-0.39
					C177.52,104.38,177.69,105.27,177.27,105.92z"/>
			</g>
			<g id="XMLID_3489_">
				<path id="XMLID_3490_" class="st6" d="M176.74,108.58c0.03,0.65-0.45,1.2-1.07,1.23c-0.62,0.03-1.16-0.47-1.19-1.12
					c-0.03-0.65,0.45-1.2,1.07-1.23C176.18,107.43,176.71,107.93,176.74,108.58z"/>
			</g>
			<g id="XMLID_3487_" class="st14">
				<polygon id="XMLID_3488_" class="st11" points="171.4,107.93 171.58,114.75 175.17,113.64 				"/>
			</g>
			<g id="XMLID_3485_" class="st14">
				<path id="XMLID_3486_" class="st11" d="M166.41,123.33c-2.9-0.38-8.85-2.09-9.78-4.45c0,0,0.31,1.48,2.09,3.01
					c1.78,1.53,7.69,3.24,7.69,3.24V123.33z"/>
			</g>
		</g>
		<g id="XMLID_3478_">
			<path id="XMLID_3483_" class="st13" d="M130.78,174.92c0.07-0.97,1.89-11.37,3.15-17.18l12.22,3.75l-1.96,8.14l-10.17,9.83
				C130.8,178.82,130.71,175.9,130.78,174.92z"/>
			<path id="XMLID_3482_" class="st2" d="M149.93,129.49c-4.69,0.41-10.87,1.11-13.81,14.45c-2.76,12.51-3.44,16.88-3.44,16.88
				s3.61,4.57,12.95,4.07l3.43-14.23C155.31,142.44,153.29,136.55,149.93,129.49z"/>
			<g id="XMLID_3479_">
				<path id="XMLID_3481_" class="st6" d="M189.44,165.24c1.68-3.12,2.09-3.26,3.09-3.95c1-0.69,7.12-1.6,9.66-1.81
					c2.99-0.25,4.05,0.3,3.22,2.87c-1.78,5.5-7.17,17.19-8.38,18.8c-0.79,1.06-0.96,2.04-4.32,2.37c-3.14,0.31-7.08,0.48-8.24,0.55
					c-1.16,0.07-2.76,0.36-1.72-3.05c1.04-3.41,3.49-8.95,4.59-11.33C188.64,166.87,189.44,165.24,189.44,165.24z"/>
				<path id="XMLID_3480_" class="st13" d="M144.19,169.63c0,0,27.16,2.87,30.67,1.78c3.51-1.09,8.24-4.61,10.79-6.06
					c2.55-1.45,4.36-1.58,4.36-0.97s-2.17,3.93-2.67,5.3c-0.49,1.37,2.34,1.38,6.06,0.52c3.72-0.86,5.21-3.02,6.18-1.75
					c0.97,1.27-2.06,7.45-8.24,9.75c-6.18,2.3-10.77,0.78-15.87,1c-5.1,0.21-34.36,2.5-41.45,0.27c0,0-0.82-3.32,2.45-6.04
					C139.75,170.71,144.19,169.63,144.19,169.63z"/>
			</g>
		</g>
	</g>
</g>
<g id="Clouds">
	<g id="Clouds_3_">
		<path id="XMLID_3405_" class="st15" d="M317.79,72.83l7.44-4.3c-0.04-0.29-0.06-0.59-0.06-0.91v-2.16c0-3.84,2.69-8.5,6.02-10.42
			c1.35-0.78,2.58-0.98,3.59-0.69c0.54-5.45,4.33-11.62,8.93-14.28c4.97-2.87,9-0.54,9,5.2v3.23c0,1.49-0.28,3.06-0.76,4.62
			l6.18-3.57c1.84-1.06,3.34-0.2,3.34,1.93c0,2.13-1.49,4.72-3.34,5.78l-40.34,23.29c-1.84,1.06-3.34,0.2-3.34-1.93
			C314.46,76.48,315.95,73.9,317.79,72.83z"/>
		<path id="XMLID_3402_" class="st15" d="M282.12,122.84l5.62-3.24c-0.03-0.22-0.05-0.45-0.05-0.69v-1.63c0-2.9,2.03-6.42,4.54-7.87
			c1.02-0.59,1.95-0.74,2.71-0.52c0.41-4.12,3.27-8.77,6.74-10.78c3.75-2.17,6.79-0.41,6.79,3.92v2.43c0,1.12-0.21,2.31-0.58,3.49
			l4.67-2.69c1.39-0.8,2.52-0.15,2.52,1.45c0,1.61-1.13,3.56-2.52,4.36l-30.45,17.58c-1.39,0.8-2.52,0.15-2.52-1.45
			C279.6,125.59,280.73,123.64,282.12,122.84z"/>
	</g>
</g>
</svg>
