<?xml version="1.0" encoding="utf-8"?>
<!-- Generator: Adobe Illustrator 25.2.1, SVG Export Plug-In . SVG Version: 6.00 Build 0)  -->
<svg version="1.1" xmlns="http://www.w3.org/2000/svg" xmlns:xlink="http://www.w3.org/1999/xlink" x="0px" y="0px"
	 viewBox="0 0 500 500" style="enable-background:new 0 0 500 500;" xml:space="preserve">
<style type="text/css">
	.st0{fill:#92E3A9;stroke:#FCFEFD;stroke-miterlimit:10;}
	.st1{opacity:0.7;fill:#7FB462;stroke:#FCFEFD;stroke-miterlimit:10;}
	.st2{fill:#263238;}
	.st3{fill:none;stroke:#263238;stroke-linecap:round;stroke-linejoin:round;stroke-miterlimit:10;}
	.st4{fill:none;stroke:#263238;stroke-width:4;stroke-linecap:round;stroke-linejoin:round;stroke-miterlimit:10;}
	.st5{fill:#FFFFFF;stroke:#263238;stroke-linecap:round;stroke-linejoin:round;stroke-miterlimit:10;}
	.st6{fill:#92E3A9;stroke:#263238;stroke-linecap:round;stroke-linejoin:round;stroke-miterlimit:10;}
	.st7{fill:#263238;stroke:#263238;stroke-linecap:round;stroke-linejoin:round;stroke-miterlimit:10;}
	.st8{fill:#FFFFFF;}
	.st9{fill:#7FB462;stroke:#263238;stroke-linecap:round;stroke-linejoin:round;stroke-miterlimit:10;}
	.st10{fill:#A6A6A6;stroke:#263238;stroke-linecap:round;stroke-linejoin:round;stroke-miterlimit:10;}
	.st11{fill:#92E3A9;}
</style>
<g id="Background_Simple">
	<g>
		<path class="st0" d="M303.08,44.31c-11.49-8.27-26.63-9.67-39.43-3.79C201.22,69.23-4.84,170.54,38.57,238.27
			c51.02,79.6,231.97,205.17,298.37,199.19c66.4-5.99,141.62-117.33,124.72-190.63C447.46,185.25,351.97,79.49,303.08,44.31z"/>
		<path class="st1" d="M303.08,44.31c-11.49-8.27-26.63-9.67-39.43-3.79C201.22,69.23-4.84,170.54,38.57,238.27
			c51.02,79.6,231.97,205.17,298.37,199.19c66.4-5.99,141.62-117.33,124.72-190.63C447.46,185.25,351.97,79.49,303.08,44.31z"/>
	</g>
</g>
<g id="Plants">
	<g>
		<path class="st2" d="M360.94,251.94c1.53,3.66,8.09,9.65,8.09,9.65c0.07,0.06,2.64-5.52,2.76-5.89c1.41-4.29,1.6-13.42-2.49-16.39
			c-2.95-2.14-6.9-0.92-8.66,2.11C358.85,244.5,359.64,248.83,360.94,251.94z"/>
		<path class="st2" d="M465.95,310.46c-3.26-3.87-12.35-3.01-16.53-1.3c-0.36,0.15-5.75,3.11-5.68,3.18c0,0,0.06,0.06,0.08,0.07
			c-1.44,0.12-2.97,0.27-4.65,0.47c-3.09,0.39-6.58,0.86-10.35,1.62c-3.76,0.75-7.83,1.68-12.03,3.04c-4.21,1.36-8.57,3-12.84,5.28
			c-0.05,0.03-0.1,0.06-0.14,0.08c1.04-1.05,3.86-4.1,4.05-4.36c2.68-3.64,5.71-12.25,2.74-16.35c-2.13-2.96-6.27-3.02-8.88-0.7
			c-2.67,2.37-3.26,6.73-3,10.1c0.3,3.79,4.3,11.01,4.62,11.59c-4.05,2.2-8.02,4.8-11.9,7.64c-2.22,1.62-4.4,3.33-6.57,5.06
			c0.87-0.94,1.65-1.79,1.74-1.92c2.68-3.64,5.71-12.25,2.74-16.35c-2.13-2.96-6.27-3.02-8.88-0.7c-2.67,2.37-3.27,6.73-3,10.1
			c0.27,3.41,3.56,9.64,4.45,11.27c-0.83,0.67-1.66,1.34-2.48,2.02c-3.95,3.25-7.87,6.51-11.82,9.6c-1.39,1.09-2.8,2.11-4.21,3.13
			c0.77-0.84,1.42-1.55,1.51-1.66c2.68-3.64,5.71-12.25,2.74-16.35c-2.14-2.96-6.27-3.02-8.89-0.7c-2.67,2.37-3.26,6.73-3,10.1
			c0.26,3.26,3.24,9.03,4.29,10.98c-1.47,1.01-2.94,2.02-4.42,2.93c-1.02,0.6-1.96,1.24-3.02,1.79c-1.03,0.56-2.06,1.11-3.07,1.66
			c-1.99,0.98-4.04,2.01-6.01,2.93c-1.36,0.65-2.68,1.23-4,1.83c1.4-1.07,4.09-3.21,4.29-3.41c2.12-2.12,4.72-6.39,5.56-10.33
			c0.32-0.31,0.6-0.65,0.85-1.01c1.98-2.88,1.41-6.98-1.78-8.73c-4.43-2.44-12.61,1.63-15.89,4.73c-0.19,0.18-2.07,2.4-3.24,3.82
			c0.56-0.94,1.11-1.84,1.67-2.82c1.12-1.92,2.19-3.86,3.34-5.96c0.52-1.03,1.05-2.07,1.58-3.12c0.55-1.03,1-2.19,1.51-3.29
			c1.13-2.58,2.14-5.25,3.11-7.96c1.68,0.98,7.7,4.37,11.07,4.74c3.36,0.36,7.73-0.1,10.18-2.7c2.4-2.55,2.45-6.68-0.44-8.9
			c-4.01-3.08-12.71-0.3-16.42,2.27c-0.23,0.16-2.69,2.3-4.02,3.51c0.57-1.63,1.14-3.26,1.66-4.93c1.5-4.83,2.87-9.76,4.26-14.67
			c0.42-1.51,0.87-3,1.3-4.5c0.6,0.36,7.67,4.54,11.44,4.95c3.35,0.36,7.73-0.1,10.18-2.7c2.4-2.55,2.45-6.68-0.44-8.9
			c-4.01-3.08-12.71-0.3-16.42,2.27c-0.28,0.19-3.82,3.28-4.68,4.11c0.96-3.3,1.95-6.58,3.06-9.77c1.52-4.41,3.26-8.65,5.24-12.63
			c0.28,0.17,7.64,4.57,11.5,4.99c3.36,0.36,7.73-0.1,10.18-2.7c2.4-2.55,2.45-6.68-0.44-8.9c-4.01-3.08-12.71-0.3-16.42,2.27
			c-0.29,0.2-4.09,3.53-4.74,4.18c0.12-0.24,0.21-0.49,0.34-0.73c2.17-4.23,4.81-8.05,7.45-11.51c1.53-2.01,3.11-3.85,4.68-5.6
			c1.29,0.96,7.22,5.29,10.65,6.05c3.3,0.73,7.7,0.75,10.41-1.57c2.66-2.27,3.17-6.37,0.54-8.89c-3.65-3.5-12.6-1.7-16.57,0.45
			c-0.22,0.12-2.28,1.55-3.77,2.61c0.72-0.78,1.45-1.6,2.16-2.33c2.65-2.76,5.24-5.13,7.56-7.2c1.33-1.17,2.55-2.2,3.7-3.15
			c1.75,0.28,8.84,1.34,12.18,0.45c3.26-0.87,7.17-2.88,8.52-6.19c1.32-3.24-0.12-7.12-3.62-8.14c-4.86-1.43-11.96,4.3-14.5,8.04
			c-0.22,0.32-3.07,5.77-2.98,5.78c0,0,0.09,0.01,0.11,0.02c-1.13,0.89-2.33,1.87-3.62,2.96c-2.37,2.03-5.02,4.35-7.74,7.06
			c-2.72,2.71-5.61,5.72-8.36,9.17c-2.76,3.46-5.49,7.23-7.8,11.49c-0.03,0.05-0.05,0.1-0.07,0.15c0.29-1.45,0.96-5.55,0.97-5.87
			c0.22-4.51-2-13.36-6.73-15.15c-3.41-1.29-6.9,0.94-7.8,4.32c-0.92,3.45,0.99,7.42,3.07,10.07c2.34,3,9.66,6.81,10.25,7.11
			c-2.16,4.07-4.05,8.43-5.71,12.94c-0.96,2.58-1.84,5.2-2.69,7.85c0.21-1.27,0.39-2.4,0.39-2.56c0.22-4.51-2-13.36-6.73-15.15
			c-3.41-1.29-6.9,0.94-7.8,4.32c-0.92,3.45,0.99,7.42,3.07,10.08c2.11,2.7,8.28,6.07,9.93,6.95c-0.32,1.02-0.64,2.03-0.95,3.05
			c-1.5,4.89-2.97,9.78-4.56,14.52c-0.56,1.67-1.17,3.3-1.78,4.93c0.18-1.12,0.33-2.07,0.34-2.22c0.22-4.51-2-13.36-6.73-15.15
			c-3.41-1.29-6.9,0.94-7.8,4.32c-0.92,3.45,0.99,7.42,3.07,10.08c2.01,2.58,7.68,5.74,9.63,6.79c-0.67,1.65-1.34,3.31-2.07,4.88
			c-0.52,1.06-0.95,2.12-1.53,3.15c-0.55,1.04-1.1,2.07-1.65,3.08c-1.12,1.92-2.26,3.91-3.4,5.76c-0.78,1.29-1.55,2.51-2.32,3.73
			c0.58-1.66,1.64-4.93,1.7-5.22c0.9-4.43,0.05-13.51-4.36-16c-3.18-1.79-6.96-0.12-8.36,3.09c-1.43,3.27-0.15,7.48,1.51,10.42
			c1.82,3.24,8.19,7.96,8.99,8.54c-1.28,2.02-2.55,3.98-3.78,5.81c-0.62,0.93-1.22,1.82-1.82,2.69l2.17,2.28
			c0.7-1.07,1.42-2.18,2.16-3.34c1.31-2.05,2.67-4.27,4.05-6.56c0.59,0.24,3.95,1.58,7.25,2.43c-0.07,3.82,2.47,10.77,2.8,11.67
			c-2.19,0.98-4.32,1.92-6.35,2.76c-0.57,0.24-1.53,0.49-2.56,0.73l2.31,2.43c0.61-0.14,1.14-0.28,1.44-0.41
			c2.23-0.99,4.58-2.09,6.99-3.24c0.55,0.8,5.09,7.32,8.28,9.24c2.89,1.74,7.06,3.14,10.38,1.81c3.24-1.31,5.02-5.04,3.33-8.27
			c-2.35-4.48-11.41-5.6-15.86-4.82c-0.26,0.04-3.06,0.86-4.81,1.4c0.98-0.48,1.94-0.93,2.95-1.43c2-0.98,3.96-2.02,6.07-3.12
			c1-0.57,2.02-1.15,3.04-1.73c1.03-0.56,2.04-1.27,3.07-1.91c2.36-1.53,4.68-3.2,6.99-4.92c0.86,1.74,4.01,7.9,6.62,10.06
			c2.6,2.15,6.5,4.18,9.98,3.36c3.4-0.8,5.73-4.22,4.54-7.67c-1.65-4.78-10.43-7.26-14.95-7.17c-0.28,0-3.52,0.44-5.29,0.71
			c1.37-1.05,2.75-2.09,4.11-3.2c3.92-3.2,7.78-6.56,11.65-9.89c1.18-1.02,2.38-2.03,3.57-3.03c0.3,0.62,3.89,8.02,6.81,10.44
			c2.6,2.16,6.5,4.18,9.98,3.36c3.4-0.8,5.73-4.22,4.54-7.67c-1.65-4.78-10.43-7.26-14.95-7.17c-0.34,0.01-4.99,0.63-6.17,0.85
			c2.62-2.22,5.26-4.41,7.94-6.46c3.7-2.84,7.49-5.42,11.34-7.65c0.14,0.29,3.85,8.02,6.84,10.51c2.6,2.15,6.51,4.18,9.98,3.36
			c3.4-0.8,5.73-4.22,4.54-7.67c-1.65-4.78-10.43-7.26-14.95-7.17c-0.35,0.01-5.36,0.68-6.26,0.87c0.23-0.13,0.45-0.29,0.68-0.42
			c4.14-2.33,8.45-4.06,12.56-5.49c2.39-0.83,4.72-1.5,7-2.09c0.54,1.51,3.1,8.39,5.55,10.92c2.35,2.43,6.01,4.87,9.55,4.44
			c3.47-0.42,6.16-3.57,5.36-7.12c-1.11-4.94-9.57-8.36-14.07-8.77c-0.24-0.02-2.76,0.03-4.59,0.09c1.03-0.25,2.09-0.53,3.09-0.75
			c3.73-0.84,7.2-1.38,10.28-1.84c1.75-0.24,3.34-0.43,4.83-0.59c1.31,1.2,6.63,5.99,9.91,7.09c3.2,1.07,7.57,1.55,10.52-0.46
			C467.36,317.27,468.3,313.24,465.95,310.46z"/>
		<path class="st2" d="M424.54,315.41c0.02,0.09,5.25-3.15,5.55-3.39c3.54-2.81,8.74-10.31,6.96-15.05
			c-1.28-3.41-5.25-4.57-8.38-3.02c-3.2,1.58-4.93,5.63-5.56,8.95C422.38,306.79,424.54,315.41,424.54,315.41z"/>
	</g>
	<g>
		<path class="st2" d="M133.91,251.94c-1.53,3.66-8.09,9.65-8.09,9.65c-0.07,0.06-2.64-5.52-2.76-5.89
			c-1.41-4.29-1.6-13.42,2.49-16.39c2.95-2.14,6.9-0.92,8.66,2.11C136.01,244.5,135.21,248.83,133.91,251.94z"/>
		<path class="st2" d="M28.91,310.46c3.26-3.87,12.35-3.01,16.53-1.3c0.36,0.15,5.75,3.11,5.68,3.18c0,0-0.06,0.06-0.08,0.07
			c1.44,0.12,2.97,0.27,4.65,0.47c3.09,0.39,6.58,0.86,10.35,1.62c3.76,0.75,7.83,1.68,12.03,3.04c4.21,1.36,8.57,3,12.84,5.28
			c0.05,0.03,0.1,0.06,0.14,0.08c-1.04-1.05-3.86-4.1-4.05-4.36c-2.68-3.64-5.71-12.25-2.74-16.35c2.13-2.96,6.27-3.02,8.88-0.7
			c2.67,2.37,3.26,6.73,3,10.1c-0.3,3.79-4.3,11.01-4.62,11.59c4.05,2.2,8.02,4.8,11.9,7.64c2.22,1.62,4.4,3.33,6.57,5.06
			c-0.87-0.94-1.65-1.79-1.74-1.92c-2.68-3.64-5.71-12.25-2.74-16.35c2.13-2.96,6.27-3.02,8.88-0.7c2.67,2.37,3.27,6.73,3,10.1
			c-0.27,3.41-3.56,9.64-4.45,11.27c0.83,0.67,1.66,1.34,2.48,2.02c3.95,3.25,7.87,6.51,11.82,9.6c1.39,1.09,2.8,2.11,4.21,3.13
			c-0.77-0.84-1.42-1.55-1.51-1.66c-2.68-3.64-5.71-12.25-2.74-16.35c2.14-2.96,6.27-3.02,8.89-0.7c2.67,2.37,3.26,6.73,3,10.1
			c-0.26,3.26-3.24,9.03-4.29,10.98c1.47,1.01,2.94,2.02,4.42,2.93c1.02,0.6,1.96,1.24,3.02,1.79c1.03,0.56,2.06,1.11,3.07,1.66
			c1.99,0.98,4.04,2.01,6.01,2.93c1.36,0.65,2.68,1.23,4,1.83c-1.4-1.07-4.09-3.21-4.29-3.41c-2.12-2.12-4.72-6.39-5.56-10.33
			c-0.32-0.31-0.6-0.65-0.85-1.01c-1.98-2.88-1.41-6.98,1.78-8.73c4.43-2.44,12.61,1.63,15.89,4.73c0.19,0.18,2.07,2.4,3.24,3.82
			c-0.56-0.94-1.11-1.84-1.67-2.82c-1.12-1.92-2.19-3.86-3.34-5.96c-0.52-1.03-1.05-2.07-1.58-3.12c-0.55-1.03-1-2.19-1.51-3.29
			c-1.13-2.58-2.14-5.25-3.11-7.96c-1.68,0.98-7.7,4.37-11.07,4.74c-3.36,0.36-7.73-0.1-10.18-2.7c-2.4-2.55-2.45-6.68,0.44-8.9
			c4.01-3.08,12.71-0.3,16.42,2.27c0.23,0.16,2.69,2.3,4.02,3.51c-0.57-1.63-1.14-3.26-1.66-4.93c-1.5-4.83-2.87-9.76-4.26-14.67
			c-0.42-1.51-0.87-3-1.3-4.5c-0.6,0.36-7.67,4.54-11.44,4.95c-3.35,0.36-7.73-0.1-10.18-2.7c-2.4-2.55-2.45-6.68,0.44-8.9
			c4.01-3.08,12.71-0.3,16.42,2.27c0.28,0.19,3.82,3.28,4.68,4.11c-0.96-3.3-1.95-6.58-3.06-9.77c-1.52-4.41-3.26-8.65-5.24-12.63
			c-0.28,0.17-7.64,4.57-11.5,4.99c-3.36,0.36-7.73-0.1-10.18-2.7c-2.4-2.55-2.45-6.68,0.44-8.9c4.01-3.08,12.71-0.3,16.42,2.27
			c0.29,0.2,4.09,3.53,4.74,4.18c-0.12-0.24-0.21-0.49-0.33-0.73c-2.17-4.23-4.81-8.05-7.45-11.51c-1.53-2.01-3.11-3.85-4.68-5.6
			c-1.29,0.96-7.22,5.29-10.65,6.05c-3.3,0.73-7.7,0.75-10.41-1.57c-2.66-2.27-3.17-6.37-0.54-8.89c3.65-3.5,12.6-1.7,16.57,0.45
			c0.22,0.12,2.28,1.55,3.77,2.61c-0.72-0.78-1.45-1.6-2.16-2.33c-2.65-2.76-5.24-5.13-7.56-7.2c-1.33-1.17-2.55-2.2-3.7-3.15
			c-1.75,0.28-8.84,1.34-12.18,0.45c-3.26-0.87-7.17-2.88-8.52-6.19c-1.32-3.24,0.12-7.12,3.62-8.14c4.86-1.43,11.96,4.3,14.5,8.04
			c0.22,0.32,3.07,5.77,2.98,5.78c0,0-0.09,0.01-0.11,0.02c1.13,0.89,2.33,1.87,3.62,2.96c2.37,2.03,5.02,4.35,7.74,7.06
			c2.72,2.71,5.61,5.72,8.36,9.17c2.76,3.46,5.49,7.23,7.8,11.49c0.03,0.05,0.05,0.1,0.07,0.15c-0.29-1.45-0.96-5.55-0.97-5.87
			c-0.22-4.51,2-13.36,6.73-15.15c3.41-1.29,6.9,0.94,7.8,4.32c0.92,3.45-0.99,7.42-3.07,10.07c-2.34,3-9.66,6.81-10.25,7.11
			c2.16,4.07,4.05,8.43,5.71,12.94c0.96,2.58,1.84,5.2,2.69,7.85c-0.21-1.27-0.39-2.4-0.39-2.56c-0.22-4.51,2-13.36,6.73-15.15
			c3.41-1.29,6.9,0.94,7.8,4.32c0.92,3.45-0.99,7.42-3.07,10.08c-2.11,2.7-8.28,6.07-9.93,6.95c0.32,1.02,0.64,2.03,0.95,3.05
			c1.5,4.89,2.97,9.78,4.56,14.52c0.56,1.67,1.17,3.3,1.78,4.93c-0.18-1.12-0.33-2.07-0.34-2.22c-0.22-4.51,2-13.36,6.73-15.15
			c3.41-1.29,6.9,0.94,7.8,4.32c0.92,3.45-0.99,7.42-3.07,10.08c-2.01,2.58-7.68,5.74-9.63,6.79c0.67,1.65,1.34,3.31,2.07,4.88
			c0.52,1.06,0.95,2.12,1.53,3.15c0.55,1.04,1.1,2.07,1.65,3.08c1.12,1.92,2.26,3.91,3.4,5.76c0.78,1.29,1.55,2.51,2.32,3.73
			c-0.58-1.66-1.64-4.93-1.7-5.22c-0.9-4.43-0.05-13.51,4.36-16c3.18-1.79,6.96-0.12,8.36,3.09c1.43,3.27,0.15,7.48-1.51,10.42
			c-1.82,3.24-8.19,7.96-8.99,8.54c1.28,2.02,2.55,3.98,3.78,5.81c0.62,0.93,1.22,1.82,1.82,2.69l-2.17,2.28
			c-0.7-1.07-1.42-2.18-2.16-3.34c-1.31-2.05-2.67-4.27-4.05-6.56c-0.59,0.24-3.95,1.58-7.25,2.43c0.07,3.82-2.47,10.77-2.8,11.67
			c2.19,0.98,4.32,1.92,6.35,2.76c0.57,0.24,1.53,0.49,2.56,0.73l-2.31,2.43c-0.61-0.14-1.14-0.28-1.44-0.41
			c-2.23-0.99-4.58-2.09-6.99-3.24c-0.55,0.8-5.09,7.32-8.28,9.24c-2.89,1.74-7.06,3.14-10.38,1.81c-3.24-1.31-5.02-5.04-3.33-8.27
			c2.35-4.48,11.41-5.6,15.86-4.82c0.26,0.04,3.06,0.86,4.81,1.4c-0.98-0.48-1.94-0.93-2.95-1.43c-2-0.98-3.96-2.02-6.07-3.12
			c-1-0.57-2.02-1.15-3.04-1.73c-1.03-0.56-2.04-1.27-3.07-1.91c-2.36-1.53-4.68-3.2-6.99-4.92c-0.86,1.74-4.01,7.9-6.62,10.06
			c-2.6,2.15-6.5,4.18-9.98,3.36c-3.4-0.8-5.73-4.22-4.54-7.67c1.65-4.78,10.43-7.26,14.95-7.17c0.28,0,3.52,0.44,5.29,0.71
			c-1.37-1.05-2.75-2.09-4.11-3.2c-3.92-3.2-7.78-6.56-11.65-9.89c-1.18-1.02-2.38-2.03-3.57-3.03c-0.3,0.62-3.89,8.02-6.81,10.44
			c-2.6,2.16-6.5,4.18-9.98,3.36c-3.4-0.8-5.73-4.22-4.54-7.67c1.65-4.78,10.43-7.26,14.95-7.17c0.34,0.01,4.99,0.63,6.17,0.85
			c-2.62-2.22-5.26-4.41-7.94-6.46c-3.7-2.84-7.49-5.42-11.34-7.65c-0.14,0.29-3.85,8.02-6.84,10.51c-2.6,2.15-6.51,4.18-9.98,3.36
			c-3.4-0.8-5.73-4.22-4.54-7.67c1.65-4.78,10.43-7.26,14.95-7.17c0.35,0.01,5.36,0.68,6.26,0.87c-0.23-0.13-0.45-0.29-0.68-0.42
			c-4.14-2.33-8.45-4.06-12.56-5.49c-2.39-0.83-4.72-1.5-7-2.09c-0.54,1.51-3.1,8.39-5.55,10.92c-2.35,2.43-6.01,4.87-9.55,4.44
			c-3.47-0.42-6.16-3.57-5.36-7.12c1.11-4.94,9.57-8.36,14.07-8.77c0.24-0.02,2.76,0.03,4.59,0.09c-1.03-0.25-2.09-0.53-3.09-0.75
			c-3.73-0.84-7.2-1.38-10.28-1.84c-1.75-0.24-3.34-0.43-4.83-0.59c-1.31,1.2-6.63,5.99-9.91,7.09c-3.2,1.07-7.57,1.55-10.52-0.46
			C27.5,317.27,26.56,313.24,28.91,310.46z"/>
		<path class="st2" d="M70.31,315.41c-0.02,0.09-5.25-3.15-5.55-3.39c-3.54-2.81-8.74-10.31-6.96-15.05
			c1.28-3.41,5.25-4.57,8.38-3.02c3.2,1.58,4.93,5.63,5.56,8.95C72.48,306.79,70.31,315.41,70.31,315.41z"/>
	</g>
</g>
<g id="Shadow">
	<ellipse class="st2" cx="249.56" cy="450.46" rx="77.36" ry="9.35"/>
</g>
<g id="Icon_4">
	<g>
		<rect x="392.92" y="399.72" class="st3" width="50.94" height="17.98"/>
		<rect x="394.52" y="417.67" class="st3" width="47.74" height="28.95"/>
		<rect x="412.92" y="399.81" class="st3" width="10.94" height="47.06"/>
		<path class="st3" d="M418.02,399.71c0,0-5.47-11.51-11.88-10.19C399.72,390.85,402.93,400.28,418.02,399.71z"/>
		<path class="st3" d="M418.48,399.71c0,0,5.47-11.51,11.88-10.19C436.78,390.85,433.57,400.28,418.48,399.71z"/>
		<path class="st3" d="M432.74,375.38c0.38,2.64-0.94,5.47-4.9,7.17c-3.96,1.7-6.04-3.02-10.19,1.32
			c-4.15,4.34,0.83,15.85,0.83,15.85s13.69-1.89,14.26,3.4c0.57,5.28-3.77,7.73-2.45,10.94c1.32,3.21,5.47,0.94,5.85-2.64"/>
	</g>
</g>
<g id="Icon_3">
	<g>
		<circle class="st3" cx="427.82" cy="65.42" r="26.02"/>
		<g>
			<path class="st2" d="M427.97,86.5v-3.54c-2.89-0.11-5.05-1.05-6.47-2.82c-1.42-1.77-2.2-4.28-2.34-7.54l5.39-1.05
				c0.06,1.32,0.21,2.49,0.46,3.5c0.25,1.01,0.65,1.79,1.2,2.34c0.55,0.55,1.27,0.82,2.17,0.82c1.01,0,1.73-0.3,2.17-0.91
				c0.44-0.6,0.65-1.37,0.65-2.3c0-1.49-0.34-2.71-1.03-3.67c-0.69-0.95-1.58-1.91-2.68-2.87l-4.34-3.79
				c-0.79-0.7-1.47-1.44-2.06-2.21c-0.59-0.77-1.05-1.64-1.39-2.61c-0.34-0.97-0.51-2.1-0.51-3.39c0-2.56,0.73-4.56,2.19-6
				c1.46-1.45,3.43-2.24,5.9-2.38v-3.41h1.81v3.37c1.43,0.08,2.61,0.4,3.54,0.95c0.93,0.55,1.67,1.25,2.21,2.11
				c0.55,0.86,0.96,1.82,1.22,2.89c0.27,1.07,0.43,2.18,0.48,3.33l-5.31,0.93c-0.06-1.07-0.17-2.03-0.34-2.89
				c-0.17-0.86-0.48-1.53-0.95-2.02c-0.46-0.49-1.14-0.71-2.04-0.65c-0.96,0.03-1.68,0.34-2.17,0.93c-0.49,0.59-0.74,1.33-0.74,2.23
				c0,1.21,0.27,2.18,0.8,2.93c0.53,0.74,1.19,1.48,1.98,2.21l4.3,3.75c0.9,0.82,1.73,1.7,2.51,2.65c0.77,0.96,1.39,2.02,1.85,3.2
				c0.46,1.18,0.7,2.53,0.7,4.05s-0.3,2.87-0.91,4.07c-0.6,1.19-1.45,2.16-2.55,2.89c-1.1,0.73-2.4,1.18-3.92,1.35v3.58H427.97z"/>
		</g>
	</g>
</g>
<g id="Icon_2">
	<g>
		<g>
			
				<ellipse transform="matrix(0.9738 -0.2272 0.2272 0.9738 -10.3547 22.9791)" class="st3" cx="94.62" cy="56.46" rx="8.61" ry="8.61"/>
			<path class="st3" d="M106.93,81.23C106.7,73.33,101.28,67,94.62,67c-6.66,0-12.07,6.33-12.3,14.24"/>
		</g>
		<g>
			<circle class="st3" cx="114.42" cy="55.01" r="7.16"/>
			<path class="st3" d="M124.64,75.6c-0.19-6.57-4.69-11.83-10.23-11.83c-3.62,0-6.79,2.25-8.61,5.64"/>
		</g>
		<g>
			<circle class="st3" cx="75.06" cy="55.01" r="7.16"/>
			<path class="st3" d="M64.84,75.6c0.19-6.57,4.69-11.83,10.23-11.83c3.62,0,6.79,2.25,8.61,5.64"/>
		</g>
	</g>
</g>
<g id="Icon_1">
	<g>
		
			<ellipse transform="matrix(0.9873 -0.1588 0.1588 0.9873 -64.3567 19.2329)" class="st3" cx="88.19" cy="412.39" rx="26.02" ry="26.02"/>
		<g>
			<line class="st4" x1="88.19" y1="397.75" x2="88.19" y2="427.03"/>
			<line class="st4" x1="102.83" y1="412.39" x2="73.55" y2="412.39"/>
		</g>
	</g>
</g>
<g id="Device_1_">
	<g>
		<g>
			<path class="st5" d="M331.6,90.3v303.45c0,8.33-6.75,15.08-15.08,15.08H185.4c-8.33,0-15.08-6.75-15.08-15.08V90.3
				c0-8.32,6.75-15.07,15.07-15.07h56.28l0.05,0.17c1.4,5.05,4.63,8.33,8.21,8.33h2.05c3.58,0,6.81-3.28,8.21-8.33l0.05-0.17h56.26
				C324.85,75.22,331.6,81.98,331.6,90.3z"/>
		</g>
		<g>
			<path class="st6" d="M341.85,162.78v-30.31h-2.74v-38.8c0-13.21-10.71-23.92-23.92-23.92H186.72
				c-13.21,0-23.92,10.71-23.92,23.92V402c0,13.21,10.71,23.92,23.92,23.92h128.47c13.21,0,23.92-10.71,23.92-23.92V188.61h2.74
				V170.7h-2.74v-7.92H341.85z M331.6,384.92c0,13.21-10.71,23.92-23.92,23.92H194.24c-13.21,0-23.92-10.71-23.92-23.92V99.14
				c0-13.21,10.71-23.91,23.92-23.91h47.43l0.05,0.17c1.4,5.05,4.63,8.33,8.21,8.33h2.05c3.58,0,6.81-3.28,8.21-8.33l0.05-0.17
				h47.42c13.21,0,23.92,10.71,23.92,23.91V384.92z"/>
			<path class="st7" d="M313.28,73.05H188.64c-12.74,0-23.07,10.33-23.07,23.07v303.44c0,12.74,10.33,23.07,23.07,23.07h124.64
				c12.74,0,23.07-10.33,23.07-23.07V96.12C336.34,83.38,326.02,73.05,313.28,73.05z M331.6,385.77c0,12.74-10.33,23.07-23.07,23.07
				H193.39c-12.74,0-23.07-10.33-23.07-23.07V98.28c0-12.74,10.32-23.06,23.06-23.06h48.29l0.05,0.17c1.4,5.05,4.63,8.33,8.21,8.33
				h2.05c3.58,0,6.81-3.28,8.21-8.33l0.05-0.17h48.28c12.74,0,23.07,10.33,23.07,23.07V385.77z"/>
			<path class="st8" d="M252.71,76.37c0-1.24-1.01-2.25-2.25-2.25s-2.25,1.01-2.25,2.25c0,1.24,1.01,2.25,2.25,2.25
				S252.71,77.61,252.71,76.37z"/>
			<g>
				<g>
					<path class="st2" d="M184.65,84.97c0,2.27-2.55,3.09-2.56,4.82v0.12h2.48v0.76h-3.3v-0.65c0-2.43,2.55-2.91,2.55-5.03
						c0-0.77-0.26-1.18-0.88-1.18c-0.61,0-0.88,0.44-0.88,1.11v0.67h-0.79v-0.61c0-1.15,0.53-1.92,1.69-1.92
						C184.13,83.07,184.65,83.82,184.65,84.97z"/>
					<path class="st2" d="M188.78,84.96v0.19c0,0.78-0.31,1.32-0.91,1.55c0.63,0.24,0.91,0.81,0.91,1.56v0.58
						c0,1.15-0.54,1.91-1.7,1.91c-1.15,0-1.69-0.75-1.69-1.91v-0.52h0.79v0.57c0,0.68,0.28,1.09,0.88,1.09
						c0.61,0,0.88-0.4,0.88-1.16v-0.58c0-0.74-0.31-1.1-0.95-1.12h-0.45v-0.75h0.5c0.56-0.02,0.9-0.38,0.9-1.03v-0.35
						c0-0.78-0.27-1.17-0.88-1.17c-0.6,0-0.88,0.42-0.88,1.1v0.39h-0.79v-0.34c0-1.15,0.54-1.9,1.69-1.9
						C188.24,83.07,188.78,83.81,188.78,84.96z"/>
					<path class="st2" d="M190.4,85.53v1.04h-0.81v-1.04H190.4z M190.4,89.63v1.04h-0.81v-1.04H190.4z"/>
					<path class="st2" d="M192.11,86.21c0.24-0.41,0.61-0.62,1.12-0.62c0.97,0,1.4,0.71,1.4,1.79v1.47c0,1.15-0.55,1.91-1.7,1.91
						c-1.15,0-1.69-0.75-1.69-1.91v-0.51h0.79v0.56c0,0.68,0.28,1.09,0.88,1.09s0.88-0.41,0.88-1.09v-1.46
						c0-0.68-0.28-1.09-0.88-1.09c-0.46,0-0.77,0.26-0.85,0.81v0.17h-0.79l0.2-4.19h2.97v0.75h-2.22L192.11,86.21z"/>
					<path class="st2" d="M198.81,84.95v0.14h-0.79V84.9c0-0.68-0.28-1.08-0.89-1.08c-0.64,0-0.92,0.41-0.92,1.22v1.69
						c0.2-0.52,0.61-0.81,1.22-0.81c0.97,0,1.4,0.7,1.4,1.79v1.14c0,1.15-0.57,1.91-1.72,1.91c-1.16,0-1.73-0.75-1.73-1.91V85
						c0-1.19,0.54-1.94,1.73-1.94C198.28,83.07,198.81,83.8,198.81,84.95z M196.22,87.77v1.13c0,0.68,0.28,1.09,0.89,1.09
						c0.6,0,0.89-0.41,0.89-1.09v-1.13c0-0.68-0.29-1.09-0.89-1.09C196.5,86.68,196.22,87.09,196.22,87.77z"/>
				</g>
				<g>
					<rect x="278.96" y="85.28" class="st2" width="2.13" height="5.32"/>
					<rect x="281.8" y="84.22" class="st2" width="2.13" height="6.39"/>
					<rect x="284.63" y="83.46" class="st2" width="2.13" height="7.14"/>
					<rect x="287.47" y="82.14" class="st2" width="2.13" height="8.46"/>
					<g>
						<g>
							<path class="st2" d="M315.93,90.45h-12.77v-7.8h12.77V90.45z M303.87,89.75h11.35v-6.38h-11.35V89.75z"/>
						</g>
						<g>
							<rect x="304.94" y="84.13" class="st2" width="6.74" height="4.84"/>
						</g>
						<g>
							<rect x="315.49" y="85.63" class="st2" width="1.61" height="1.84"/>
						</g>
					</g>
					<g>
						<path class="st2" d="M298.48,88.76c-0.08,0-0.17-0.02-0.24-0.07c-2.6-1.54-4.32-0.11-4.39-0.05c-0.2,0.17-0.5,0.15-0.67-0.05
							c-0.17-0.2-0.15-0.5,0.04-0.67c0.09-0.08,2.29-1.96,5.5-0.05c0.23,0.13,0.3,0.43,0.17,0.65
							C298.8,88.67,298.64,88.76,298.48,88.76z"/>
					</g>
					<g>
						<path class="st2" d="M299.44,87.15c-0.08,0-0.17-0.02-0.24-0.07c-3.76-2.23-6.28-0.07-6.31-0.05c-0.2,0.18-0.5,0.15-0.67-0.04
							c-0.17-0.2-0.16-0.5,0.04-0.67c0.03-0.03,3.08-2.64,7.43-0.05c0.23,0.13,0.3,0.43,0.17,0.65
							C299.76,87.07,299.61,87.15,299.44,87.15z"/>
					</g>
					<g>
						<path class="st2" d="M300.32,85.3c-0.08,0-0.17-0.02-0.24-0.07c-4.76-2.83-7.92-0.17-8.05-0.05c-0.2,0.17-0.5,0.15-0.67-0.05
							c-0.17-0.2-0.15-0.5,0.04-0.67c0.04-0.03,3.8-3.25,9.17-0.05c0.23,0.13,0.3,0.43,0.17,0.65
							C300.64,85.22,300.48,85.3,300.32,85.3z"/>
					</g>
					<g>
						<path class="st2" d="M297.05,89.56c0,0.66-0.54,1.2-1.2,1.2c-0.66,0-1.2-0.54-1.2-1.2c0-0.66,0.54-1.2,1.2-1.2
							C296.51,88.36,297.05,88.9,297.05,89.56z"/>
					</g>
				</g>
			</g>
		</g>
	</g>
</g>
<g id="Gift_1">
	<g>
		<line class="st3" x1="92.48" y1="130.51" x2="104.14" y2="130.51"/>
		<line class="st3" x1="182.87" y1="130.51" x2="194.53" y2="130.51"/>
		<line class="st3" x1="104.14" y1="99.9" x2="110.7" y2="105"/>
		<line class="st3" x1="181.41" y1="99.9" x2="174.85" y2="105"/>
		<line class="st3" x1="130.38" y1="87.51" x2="131.11" y2="98.44"/>
		<line class="st3" x1="155.9" y1="88.96" x2="154.44" y2="98.44"/>
		<g>
			<rect x="109.5" y="116.86" class="st5" width="62.94" height="54.31"/>
			<rect x="121" y="116.86" class="st9" width="11.87" height="54.31"/>
			<rect x="144.85" y="116.86" class="st5" width="27.59" height="54.31"/>
			<g>
				<path class="st9" d="M136.53,112.43l-9.22-4.04c-0.25-0.03-0.47-0.04-0.68-0.04l-0.15-0.07h-9.29l7.24,3.39
					c0.04,0.51,0.12,1.02,0.23,1.51c0.43,1.85,2.16,2.75,3.29,3.16l0.06,0.28h0.94c0.01,0,0.02,0,0.02,0l16.07,0.22
					C145.03,116.86,140.91,114.64,136.53,112.43z"/>
				<g>
					<path class="st9" d="M135.79,116.86c0,0-10.03-5.39-15.42-7.76c-5.39-2.37-5.6,1.29-4.96,4.1c0.65,2.8,4.31,3.45,4.31,3.45
						L135.79,116.86z"/>
				</g>
				<path class="st6" d="M138.17,112.93h-3.53c-2.12,0-3.84,1.72-3.84,3.84l0,0h11.2l0,0C142.01,114.64,140.29,112.93,138.17,112.93
					z"/>
				<g>
					<path class="st9" d="M160.23,108.39h-8.16l-1.06,4.04c-4.38,2.21-8.5,4.43-8.5,4.43l16.07-0.22c0,0,0.01,0,0.02,0h0.94
						l0.06-0.28c1.13-0.41,2.87-1.31,3.29-3.16C163.42,110.87,163.36,107.96,160.23,108.39z"/>
					<path class="st9" d="M132.87,116.86c0,0,10.03-5.39,15.42-7.76c5.39-2.37,5.6,1.29,4.96,4.1c-0.65,2.8-4.31,3.45-4.31,3.45
						L132.87,116.86z"/>
				</g>
			</g>
		</g>
	</g>
</g>
<g id="Character_1_">
	<g>
		<g>
			<g>
				<path class="st5" d="M111.55,174.95c0,0-5.26-3.5-4.11-4.61c1.15-1.11,6.8,1.33,8.08,2.97c1.29,1.64,0.64,2.79-0.42,2.89
					C114.04,176.3,111.55,174.95,111.55,174.95z"/>
				<path class="st5" d="M115.99,170.92c0,0-8.15-4.24-6.2-0.33c1.96,3.91,6.85,7.5,8.8,8.48s12.72,0.65,12.72,0.65
					s-1.96-3.59-3.91-4.56C125.45,174.19,115.99,170.92,115.99,170.92z"/>
				<path class="st5" d="M123.82,170.92c0,0-10.76-5.87-11.09-3.59c-0.33,2.28,8.48,9.78,11.41,11.09c2.93,1.3,7.17,1.3,7.17,1.3
					L123.82,170.92z"/>
				<path class="st5" d="M166.2,180.97c0,0-3.91-9.13-6.85-10.43c-2.93-1.3-29.35,1.3-29.35,1.3s-12.72-10.43-11.74-5.22
					c0.98,5.22,9.13,11.41,11.41,13.04c2.28,1.63,19.24,0.98,19.24,0.98l5.22,4.89L166.2,180.97z"/>
			</g>
			<g>
				<path class="st5" d="M326.72,195.66c0,0-1.07,2-0.46,3.84c0.61,1.84,2.3,3.38,2.3,3.38l0.77,4.76l10.44,0.46l-4.3-15.96
					L326.72,195.66z"/>
				<g>
					<path class="st7" d="M319.63,165.98c0,0,4.35,28.3,5.01,30.04c0.65,1.74,5.66,3.7,7.4,2.83c1.74-0.87-1.31-5.01-1.31-5.01
						l0.87-27.21C331.6,166.63,324.2,163.8,319.63,165.98z"/>
					<path class="st5" d="M331.82,174.9c0,0-6.1-0.44-6.31,0.65c-0.22,1.09-0.22,4.79,0.87,5.22c1.09,0.44,8.49,1.09,9.8,0.65
						c1.31-0.44,2.83-3.05,1.52-5.01C336.39,174.47,331.82,174.9,331.82,174.9z"/>
					<path class="st5" d="M331.82,181.87c0,0-5.88,0-5.66,1.31c0.22,1.31-0.44,4.14,1.96,4.57c2.39,0.44,6.53,0.22,8.71-0.22
						c2.18-0.44,2.83-3.05,1.09-4.57C336.17,181.43,331.82,181.87,331.82,181.87z"/>
					<path class="st5" d="M322.37,183.54c0,0-0.75-5.49-2.52-5.33c-1.32,0.11-4.47,1.11-4.19,3.52c0.29,2.42,1.71,6.31,2.77,8.26
						c1.06,1.95,3.74,1.81,4.69-0.3S322.37,183.54,322.37,183.54z"/>
					<path class="st5" d="M332.15,187.74c0,0-5.32,0-5.12,1.26c0.2,1.26-0.39,3.98,1.77,4.4c2.17,0.42,5.91,0.21,7.88-0.21
						c1.97-0.42,2.56-2.93,0.98-4.4C336.09,187.33,332.15,187.74,332.15,187.74z"/>
					<path class="st5" d="M332.4,192.52c0,0-4.45,0-4.28,1.05c0.16,1.05-0.33,3.33,1.48,3.68c1.81,0.35,4.94,0.18,6.59-0.18
						c1.65-0.35,2.14-2.45,0.82-3.68C335.7,192.17,332.4,192.52,332.4,192.52z"/>
				</g>
				<g>
					<path class="st5" d="M318.42,137.34c-6.14-0.12-11.41,3.72-13.69,9.04c-0.77,1.8-1.19,3.77-1.19,5.85
						c0,3.61,1.28,6.92,3.43,9.5c2.73,3.29,7.2,5.65,11.45,5.38c13.06-0.8,47.3,17.53,47.3,17.53V119.8
						C365.72,119.8,331.97,137.61,318.42,137.34z"/>
					<g>
						<path class="st9" d="M315.76,152.75c0-7.06,3.93-13.19,9.72-16.35c-2.67,0.62-5.09,0.97-7.06,0.94
							c-6.14-0.12-11.41,3.72-13.69,9.04c-0.77,1.8-1.19,3.77-1.19,5.85c0,3.61,1.28,6.92,3.43,9.5c2.73,3.29,7.2,5.65,11.45,5.38
							c1.31-0.08,2.84,0.04,4.52,0.31C318.58,164.01,315.76,158.71,315.76,152.75z"/>
					</g>
					
						<ellipse transform="matrix(0.2365 -0.9716 0.9716 0.2365 131.3119 471.5531)" class="st5" cx="365.72" cy="152.22" rx="32.42" ry="32.42"/>
					<path class="st10" d="M393.35,152.22c0,15.26-12.37,27.63-27.63,27.63c-8.55,0-16.2-3.88-21.26-10
						c-3.98-4.78-6.36-10.93-6.36-17.64c0-3.86,0.79-7.52,2.21-10.86c4.22-9.87,14.01-16.78,25.41-16.78
						C380.97,124.59,393.35,136.96,393.35,152.22z"/>
					<path class="st5" d="M365.71,145.47v13.5l-21.26,10.89c-3.98-4.78-6.36-10.93-6.36-17.64c0-3.86,0.79-7.52,2.21-10.86
						L365.71,145.47z"/>
					<path class="st5" d="M372.46,152.22c0,3.73-3.02,6.75-6.75,6.75c-3.73,0-6.75-3.02-6.75-6.75c0-3.73,3.02-6.75,6.75-6.75
						C369.44,145.47,372.46,148.49,372.46,152.22z"/>
				</g>
			</g>
			<g>
				<polygon class="st9" points="327.14,208.05 326.07,203.53 340.08,201.8 339.77,208.09 				"/>
				<polygon class="st9" points="153.3,187.35 150.07,182.17 164.95,174.62 166.2,180.97 				"/>
				<path class="st9" d="M243.75,179.86c0,0-23.92-2.66-26.04-1.59c-2.13,1.06-32.42,36.94-32.42,36.94l-18.6-37.2l-15.68,6.91
					c0,0,19.66,66.96,22.85,67.76c3.19,0.8,33.48-19.4,33.48-19.4l-1.86,26.57c0,0,5.58,22.32,30.29,26.57
					c24.71,4.25,39.33-14.88,42.52-21.26c3.19-6.38,6.11-15.68,6.11-15.68l11.43-33.75c0,0,32.15,26.31,39.33,29.5
					c7.17,3.19,13.82,6.11,14.61,4.52c0.8-1.59-7.17-44.11-7.17-44.11l-17.01,0.8l0.8,6.64c0,0-22.06-28.96-23.92-31.89
					c-1.86-2.92-7.44-2.39-14.08-4.25C281.75,175.07,243.75,179.86,243.75,179.86z"/>
				<line class="st9" x1="207.34" y1="233.27" x2="225.15" y2="219.98"/>
				<line class="st9" x1="218.77" y1="225.03" x2="227.8" y2="223.43"/>
				<line class="st9" x1="295.83" y1="215.73" x2="301.94" y2="194.2"/>
				<line class="st9" x1="298.22" y1="208.82" x2="304.86" y2="199.52"/>
				<line class="st9" x1="327.18" y1="228.54" x2="327.45" y2="233.8"/>
				<line class="st9" x1="326.39" y1="213.07" x2="326.87" y2="222.54"/>
				<line class="st9" x1="185.29" y1="215.2" x2="190.87" y2="226.89"/>
			</g>
			<path class="st9" d="M252.78,176.93l-11.69,2.13c0,0-4.25,3.45-6.64,11.43c-2.39,7.97-3.19,14.88-3.19,14.88l10.1,0.53
				l-7.97,7.97c0,0,2.39,3.45,7.44,10.89c5.05,7.44,13.02,15.94,13.02,15.94l-14.88,19.13c0,0,18.07-3.99,29.23-16.21
				c11.16-12.22,17.8-30.56,17.8-30.56l-8.77-6.91l9.3-1.86c0,0,1.86-15.15-7.97-24.98C268.73,169.49,252.78,176.93,252.78,176.93z"
				/>
			<g>
				<path class="st5" d="M279.09,183.31c0,0-3.11,6.14-3.72,17.54c-0.48,8.9-5.15,20.24-9.28,28.26c-3.27,6.38-6.2,10.66-6.41,10.01
					c0,0-1.73-2.76-4.48-10.79c-0.67-1.93-1.39-4.17-2.17-6.75c-3.98-13.29-7.44-34.81-5.85-39.06c1.6-4.25,2.66-6.11,2.66-6.11
					C262.62,193.67,279.09,183.31,279.09,183.31z"/>
				<path class="st7" d="M262.88,219.72l3.22,9.39c-3.27,6.38-6.2,10.66-6.41,10.01c0,0-1.73-2.76-4.48-10.79l4.48-8.08l-4.44-8.31
					l5.24-5.25l7.17,7.17L262.88,219.72z"/>
				<polyline class="st3" points="251.72,215.73 260.49,206.69 271.17,216.77 				"/>
				<path class="st3" d="M249.86,176.4c0,0,0.27,7.97,3.19,15.68c2.92,7.71,7.44,14.61,7.44,14.61l12.49-17.8
					C272.98,188.89,259.43,190.22,249.86,176.4z"/>
			</g>
			<g>
				<path class="st5" d="M287.87,148.24c0,0,3.79-0.6,3.79,4.59s-2.2,11.58-2.2,11.58L287.87,148.24z"/>
				<g>
					<path class="st5" d="M286.53,129.1c0,0,2.66,24.18,2.92,31.36c0.27,7.17-0.53,13.55-2.92,16.74
						c-2.39,3.19-11.96,15.94-17.01,16.47c-5.05,0.53-10.63-2.13-12.75-3.99c-2.13-1.86-12.22-17.8-12.22-17.8
						s-7.71-0.53-9.57-10.63c-1.86-10.1,8.5-7.71,8.5-7.71s-5.58-8.77-6.11-17.27c-0.53-8.5-2.13-11.69,20.73-12.22
						C280.95,123.52,286.53,129.1,286.53,129.1z"/>
					<polyline class="st3" points="274.57,146.11 280.95,168.16 271.12,165.24 					"/>
					<line class="st3" x1="261.29" y1="162.58" x2="253.58" y2="164.18"/>
					<path class="st3" d="M257.57,163.91c0,0,1.86,7.17,10.36,8.5c8.5,1.33,12.75-0.27,12.75-0.27"/>
					<path class="st7" d="M259.69,168.16c0,0-0.27,13.29,4.52,13.82c4.78,0.53,3.72-9.57,3.72-9.57S263.41,171.35,259.69,168.16z"/>
					<path class="st5" d="M260.67,177.35c0.65,2.42,1.74,4.43,3.54,4.63c1.06,0.12,1.84-0.29,2.4-0.99
						C265.68,179.35,262.47,178,260.67,177.35z"/>
					<path class="st2" d="M263.01,152.22c0,1.47-0.65,2.66-1.46,2.66c-0.81,0-1.46-1.19-1.46-2.66c0-1.47,0.65-2.66,1.46-2.66
						C262.36,149.56,263.01,150.75,263.01,152.22z"/>
					<path class="st2" d="M280.82,149.83c0,1.47-0.65,2.66-1.46,2.66c-0.81,0-1.46-1.19-1.46-2.66c0-1.47,0.65-2.66,1.46-2.66
						C280.16,147.17,280.82,148.36,280.82,149.83z"/>
					<path class="st3" d="M256.77,147.7c0,0,3.45-4.52,10.1-3.72"/>
					<path class="st3" d="M275.37,142.92c0,0,3.45-6.38,9.03-3.19"/>
					<path class="st7" d="M258.36,129.63c0,0-8.24-1.33-6.38,1.06c1.86,2.39,6.11,5.31,3.99,7.17c-2.13,1.86-7.44,5.05-7.17,6.64
						c0.27,1.59,0.8,8.24,0,9.83c-0.8,1.59-2.66,1.86-4.52,1.59c-1.86-0.27-4.52-5.05-5.58-6.38s-10.63-10.89-8.77-18.6
						c1.86-7.71,21.79-13.82,21.79-13.82s12.75-14.35,21.26-14.61c8.5-0.27,5.31,7.71,5.05,8.5c-0.27,0.8,12.22-0.8,14.61,6.91
						c2.39,7.71,1.59,9.83-9.3,12.75C272.45,133.62,258.36,129.63,258.36,129.63z"/>
				</g>
			</g>
		</g>
		<polygon class="st2" points="425.98,119.02 404.32,124.62 408.8,126.86 396.47,130.6 421.49,127.24 415.15,124.25 		"/>
		<polygon class="st2" points="430.42,171.75 408.51,167.22 411.55,171.2 398.84,169.12 422.77,177.14 418.4,171.66 		"/>
		<polygon class="st2" points="406.86,207.86 388.41,195.2 389.67,200.05 378.76,193.21 397.72,209.87 395.81,203.13 		"/>
	</g>
</g>
<g id="Text">
	<g>
		<path class="st11" d="M207.24,337.8v-30.62h7.33c2.07,0,3.81,0.25,5.24,0.74c1.42,0.49,2.51,1.33,3.25,2.51
			c0.74,1.18,1.11,2.8,1.11,4.84c0,1.24-0.11,2.34-0.34,3.33c-0.23,0.98-0.61,1.82-1.15,2.51c-0.54,0.69-1.29,1.23-2.25,1.61
			l4.27,15.08h-5.59l-3.7-14.02h-2.57v14.02H207.24z M212.84,320.26h1.74c1.08,0,1.95-0.16,2.59-0.47c0.64-0.32,1.1-0.82,1.38-1.51
			c0.28-0.69,0.42-1.58,0.42-2.67c0-1.54-0.28-2.69-0.85-3.46c-0.57-0.77-1.64-1.15-3.23-1.15h-2.04V320.26z"/>
		<path class="st11" d="M228.37,337.8v-30.62h12.85v3.93h-7.26v8.81h5.71v3.89h-5.71v10.13h7.33v3.86H228.37z"/>
		<path class="st11" d="M244.55,337.8v-30.62h12.59v3.86h-6.99v8.92h5.71v3.89h-5.71v13.95H244.55z"/>
		<path class="st11" d="M260.05,337.8v-30.62h12.85v3.93h-7.26v8.81h5.71v3.89h-5.71v10.13h7.33v3.86H260.05z"/>
		<path class="st11" d="M276.23,337.8v-30.62h7.33c2.07,0,3.81,0.25,5.24,0.74c1.42,0.49,2.51,1.33,3.25,2.51
			c0.74,1.18,1.12,2.8,1.12,4.84c0,1.24-0.11,2.34-0.34,3.33c-0.23,0.98-0.61,1.82-1.15,2.51c-0.54,0.69-1.29,1.23-2.25,1.61
			l4.27,15.08h-5.59l-3.7-14.02h-2.57v14.02H276.23z M281.82,320.26h1.74c1.08,0,1.95-0.16,2.59-0.47c0.64-0.32,1.1-0.82,1.38-1.51
			c0.28-0.69,0.42-1.58,0.42-2.67c0-1.54-0.28-2.69-0.85-3.46c-0.57-0.77-1.64-1.15-3.23-1.15h-2.04V320.26z"/>
		<path class="st11" d="M183.94,377.16l6.12-30.62h5.97l6.12,30.62h-5.18l-1.21-7.07h-5.33l-1.25,7.07H183.94z M191.01,366.54h4.16
			l-2.08-12.85L191.01,366.54z"/>
		<path class="st11" d="M214.25,377.16v-30.62h12.59v3.86h-6.99v8.92h5.71v3.89h-5.71v13.95H214.25z"/>
		<path class="st11" d="M229.75,377.16v-30.62h7.33c2.07,0,3.81,0.25,5.23,0.74c1.42,0.49,2.51,1.33,3.25,2.51
			c0.74,1.18,1.12,2.8,1.12,4.84c0,1.24-0.11,2.34-0.34,3.33c-0.23,0.98-0.61,1.82-1.15,2.51c-0.54,0.69-1.29,1.23-2.25,1.61
			l4.27,15.08h-5.59l-3.7-14.02h-2.57v14.02H229.75z M235.35,359.63h1.74c1.08,0,1.95-0.16,2.59-0.47c0.64-0.32,1.1-0.82,1.38-1.51
			c0.28-0.69,0.42-1.58,0.42-2.67c0-1.54-0.28-2.69-0.85-3.46c-0.57-0.77-1.64-1.15-3.23-1.15h-2.04V359.63z"/>
		<path class="st11" d="M251.03,377.16v-30.62h5.52v30.62H251.03z"/>
		<path class="st11" d="M261.28,377.16v-30.62h12.85v3.93h-7.26v8.81h5.71v3.89h-5.71v10.13h7.33v3.86H261.28z"/>
		<path class="st11" d="M277.45,377.16v-30.62h3.89l7.45,17.46v-17.46h4.61v30.62h-3.71l-7.48-18.29v18.29H277.45z"/>
		<path class="st11" d="M298.05,377.16v-30.62h7.22c2.5,0,4.44,0.34,5.84,1.02c1.4,0.68,2.39,1.73,2.99,3.14
			c0.59,1.41,0.89,3.2,0.89,5.37v11.19c0,2.22-0.3,4.06-0.89,5.54c-0.59,1.47-1.58,2.57-2.95,3.29c-1.37,0.72-3.26,1.08-5.65,1.08
			H298.05z M303.65,373.27h1.7c1.29,0,2.2-0.23,2.76-0.68c0.55-0.45,0.89-1.11,1.02-1.98c0.13-0.87,0.19-1.93,0.19-3.19v-11.72
			c0-1.23-0.09-2.23-0.26-2.99c-0.18-0.76-0.54-1.31-1.1-1.66c-0.55-0.35-1.45-0.53-2.68-0.53h-1.62V373.27z"/>
	</g>
</g>
</svg>
